<svg width="50" height="50" viewBox="0 0 50 50" fill="none" xmlns="http://www.w3.org/2000/svg">
<g clip-path="url(#clip0_483_9797)">
<path d="M7.38957 20.6296C6.58346 20.6296 5.92993 19.976 5.92993 19.1699V16.2507C5.92993 15.4445 6.58346 14.791 7.38957 14.791C8.19568 14.791 8.84921 15.4445 8.84921 16.2507V19.1699C8.84921 19.976 8.19568 20.6296 7.38957 20.6296Z" fill="#66334D"/>
<path d="M35.1227 16.251V19.1703C35.1227 19.976 34.4688 20.6299 33.663 20.6299H16.1474C15.3417 20.6299 14.6877 19.976 14.6877 19.1703V16.251C14.6877 13.8367 16.6524 11.8721 19.0667 11.8721H30.7438C33.158 11.8721 35.1227 13.8367 35.1227 16.251Z" fill="#66334D"/>
<path d="M35.1227 16.251V19.1703C35.1227 19.976 34.4688 20.6299 33.6631 20.6299H24.9053V11.8721H30.7438C33.1581 11.8721 35.1227 13.8367 35.1227 16.251Z" fill="#66334D"/>
<path d="M35.1227 16.251V19.1703C35.1227 19.976 34.4688 20.6299 33.6631 20.6299H24.9053V11.8721H30.7438C33.1581 11.8721 35.1227 13.8367 35.1227 16.251Z" fill="#4D2739"/>
<path d="M49.8165 22.0889V33.766L24.9053 36.1014L-0.00585938 33.766V22.0889C-0.00585938 19.6746 1.95881 17.71 4.37306 17.71H45.4376C47.8518 17.71 49.8165 19.6746 49.8165 22.0889Z" fill="#8C466A"/>
<path d="M49.8164 22.0889V33.766L24.9053 36.1014V17.71H45.4375C47.8518 17.71 49.8164 19.6746 49.8164 22.0889Z" fill="#66334D"/>
<path d="M49.8165 33.7666V45.4437C49.8165 47.858 47.8518 49.8226 45.4376 49.8226H4.37306C1.95881 49.8226 -0.00585938 47.858 -0.00585938 45.4437V33.7666H49.8165Z" fill="#FF8FB8"/>
<path d="M49.8164 33.7666V45.4437C49.8164 47.858 47.8518 49.8226 45.4375 49.8226H24.9053V33.7666H49.8164Z" fill="#FF5F96"/>
<path d="M24.9052 23.5488C19.271 23.5488 14.6877 28.1321 14.6877 33.7663C14.6877 39.3898 19.2623 43.9838 24.9052 43.9838C30.5511 43.9838 35.1227 39.3879 35.1227 33.7663C35.1227 28.1321 30.5394 23.5488 24.9052 23.5488Z" fill="#FFF2FB"/>
<path d="M35.1227 33.7663C35.1227 39.3879 30.5512 43.9838 24.9053 43.9838V23.5488C30.5395 23.5488 35.1227 28.1321 35.1227 33.7663Z" fill="#FFDFEA"/>
<path d="M24.9053 29.3877C22.491 29.3877 20.5264 31.3524 20.5264 33.7666C20.5264 36.175 22.4852 38.1455 24.9053 38.1455C27.3234 38.1455 29.2842 36.177 29.2842 33.7666C29.2842 31.3524 27.3195 29.3877 24.9053 29.3877Z" fill="#FFDFEA"/>
<path d="M29.2842 33.7666C29.2842 36.177 27.3234 38.1455 24.9053 38.1455V29.3877C27.3195 29.3877 29.2842 31.3524 29.2842 33.7666Z" fill="#FFBFBF"/>
<path d="M7.38957 26.4681C8.19571 26.4681 8.84921 25.8146 8.84921 25.0085C8.84921 24.2023 8.19571 23.5488 7.38957 23.5488C6.58343 23.5488 5.92993 24.2023 5.92993 25.0085C5.92993 25.8146 6.58343 26.4681 7.38957 26.4681Z" fill="#97DE3D"/>
<path d="M42.4209 26.4681H39.5016C38.6955 26.4681 38.042 25.8146 38.042 25.0085C38.042 24.2024 38.6955 23.5488 39.5016 23.5488H42.4209C43.227 23.5488 43.8805 24.2024 43.8805 25.0085C43.8805 25.8146 43.227 26.4681 42.4209 26.4681Z" fill="#59C36A"/>
<path d="M26.3648 1.45964V4.37892C26.3648 5.18464 25.7109 5.83856 24.9052 5.83856C24.0995 5.83856 23.4456 5.18464 23.4456 4.37892V1.45964C23.4456 0.653918 24.0995 0 24.9052 0C25.7109 0 26.3648 0.653918 26.3648 1.45964Z" fill="#FFE580"/>
<path d="M26.3649 1.45964V4.37892C26.3649 5.18464 25.711 5.83855 24.9053 5.83855V0C25.711 0 26.3649 0.653918 26.3649 1.45964Z" fill="#FFCC66"/>
<path d="M28.6797 7.90265C28.1097 7.33261 28.1097 6.40847 28.6797 5.83843L30.744 3.77421C31.3139 3.20417 32.2381 3.20417 32.8082 3.77421C33.3782 4.34425 33.3782 5.26839 32.8082 5.83843L30.744 7.90265C30.174 8.47269 29.2498 8.47269 28.6797 7.90265Z" fill="#FFCC66"/>
<path d="M19.0669 7.90265L17.0027 5.83843C16.4327 5.26839 16.4327 4.34425 17.0027 3.77421C17.5726 3.20417 18.4967 3.20417 19.0669 3.77421L21.1311 5.83843C21.701 6.40847 21.701 7.33261 21.1311 7.90265C20.5612 8.47259 19.637 8.47278 19.0669 7.90265Z" fill="#FFE580"/>
</g>
<defs>
<clipPath id="clip0_483_9797">
<rect width="49.8223" height="49.8223" fill="white" transform="translate(-0.00585938)"/>
</clipPath>
</defs>
</svg>
