<svg width="40" height="40" viewBox="0 0 40 40" fill="none" xmlns="http://www.w3.org/2000/svg">
<rect y="0.493652" width="40" height="39.0122" rx="10" fill="#DF4426" fill-opacity="0.18"/>
<path d="M30 17.5059H25.21L20.82 10.9359C20.7285 10.7998 20.605 10.6882 20.4602 10.6111C20.3155 10.534 20.154 10.4937 19.99 10.4937C19.826 10.4937 19.6645 10.534 19.5198 10.6111C19.375 10.6882 19.2515 10.7998 19.16 10.9359L14.77 17.5059H10C9.45 17.5059 9 17.9559 9 18.5059C9 18.5959 9.01 18.6859 9.04 18.7759L11.58 28.0459C11.81 28.8859 12.58 29.5059 13.5 29.5059H26.5C27.42 29.5059 28.19 28.8859 28.43 28.0459L30.97 18.7759L31 18.5059C31 17.9559 30.55 17.5059 30 17.5059ZM19.99 13.2959L22.8 17.5059H17.18L19.99 13.2959ZM20 25.5059C18.9 25.5059 18 24.6059 18 23.5059C18 22.4059 18.9 21.5059 20 21.5059C21.1 21.5059 22 22.4059 22 23.5059C22 24.6059 21.1 25.5059 20 25.5059Z" fill="#DF4426"/>
</svg>
