<svg width="24" height="19" viewBox="0 0 24 19" fill="none" xmlns="http://www.w3.org/2000/svg">
<path d="M8.69944 9.9699C8.71011 8.85053 9.02509 7.75299 9.61354 6.78475C10.202 5.81651 11.0437 5.01077 12.0564 4.4464C12.2579 4.29436 12.4973 4.19475 12.7511 4.15729C13.005 4.11983 13.2647 4.14578 13.5049 4.23263C13.7451 4.31948 13.9576 4.46427 14.1218 4.65287C14.286 4.84147 14.3963 5.06743 14.4418 5.30879C14.6896 6.00322 14.9895 6.68112 15.2299 7.37792C15.2939 7.58709 15.4148 7.77634 15.5802 7.92654C15.7456 8.07675 15.9496 8.18257 16.1716 8.23324C16.9077 8.43553 17.6438 8.63547 18.3761 8.84605C18.4724 8.86341 18.564 8.89893 18.6457 8.95053C18.7274 9.00213 18.7974 9.06879 18.8518 9.14657C18.9061 9.22435 18.9437 9.3117 18.9623 9.40351C18.9808 9.49533 18.98 9.58975 18.9598 9.68125C18.9486 9.78 18.9154 9.8753 18.8623 9.96073C18.8092 10.0462 18.7376 10.1197 18.6522 10.1764C18.5668 10.2332 18.4696 10.2718 18.3673 10.2896C18.2649 10.3075 18.1598 10.3041 18.0589 10.2799C17.3216 10.1817 16.5868 10.0717 15.8556 9.93679C15.3074 9.85836 14.7876 9.6532 14.3414 9.33918C13.8952 9.02516 13.5362 8.61178 13.2955 8.13504C13.1716 7.89843 13.0204 7.67249 12.8581 7.40276C12.2882 7.9329 11.9054 8.61927 11.7627 9.36658C11.6722 9.70966 11.7626 9.87289 12.1195 9.99001C13.1802 10.3366 14.2335 10.7069 15.2819 11.0879C15.4907 11.1358 15.6835 11.2331 15.8426 11.3709C16.0016 11.5087 16.1217 11.6825 16.1918 11.8763C16.262 12.0701 16.2798 12.2776 16.2438 12.4797C16.2078 12.6818 16.119 12.872 15.9857 13.0328C15.4603 13.8609 14.8978 14.6677 14.3414 15.4781C13.9473 16.0518 13.9399 16.0471 14.3414 16.6291C14.3662 16.6646 14.4095 16.7013 14.4095 16.7368C14.4095 16.9272 14.4702 17.1781 14.3686 17.2916C14.2939 17.362 14.2031 17.4149 14.1033 17.4461C14.0035 17.4773 13.8975 17.4859 13.7937 17.4714C13.259 17.3269 12.7356 17.1466 12.2274 16.932C12.1285 16.9012 12.0382 16.8496 11.963 16.781C11.8879 16.7124 11.8298 16.6285 11.7931 16.5356C11.7565 16.4427 11.7422 16.3431 11.7513 16.2442C11.7604 16.1453 11.7927 16.0497 11.8457 15.9643C12.2348 15.0707 12.6251 14.1771 13.0167 13.2836C13.0489 13.209 13.0725 13.1321 13.1059 13.047C12.2769 12.8103 11.4665 12.5808 10.6648 12.3371C10.3119 12.2436 9.97201 12.1102 9.65234 11.9396C9.31514 11.7305 9.04677 11.4346 8.87816 11.0861C8.70955 10.7375 8.6476 10.3506 8.69944 9.9699Z" fill="url(#paint0_linear_101_7077)"/>
<path d="M6.7945 11.0414C6.07206 11.0496 5.34838 11.0343 4.62594 11.0485C4.32653 11.0547 4.02847 11.0891 3.73618 11.1514C3.12177 11.2753 2.55528 11.5592 2.09948 11.9716C1.64367 12.384 1.31635 12.9088 1.15375 13.4879L0.893576 14.232L0.737468 14.2142C0.507735 13.7034 0.42237 13.1439 0.489996 12.5917C0.557622 12.0395 0.775765 11.5139 1.12275 11.0674C0.426327 10.9242 0.0806556 10.6108 0.0682638 10.0713C0.035219 8.67613 0.0129695 7.28056 0.0014038 5.88459C-0.00591485 5.75335 0.0154377 5.6221 0.0641796 5.49919C0.112921 5.37628 0.187901 5.2644 0.284424 5.17069C0.380948 5.07698 0.496864 5.00349 0.624775 4.9549C0.752685 4.90632 0.889723 4.88369 1.0273 4.88847C2.55066 4.87507 4.07416 4.87507 5.59752 4.88847C5.89685 4.88835 6.18606 4.99168 6.41179 5.17936C6.63753 5.36703 6.7845 5.62636 6.82551 5.90943C7.10308 7.28804 7.3769 8.66824 7.64704 10.05C7.68368 10.1713 7.68886 10.2993 7.66216 10.4229C7.63547 10.5465 7.57771 10.6621 7.4938 10.7597C7.4099 10.8572 7.30236 10.9339 7.18053 10.9829C7.0587 11.032 6.92625 11.0521 6.7945 11.0414Z" fill="url(#paint1_linear_101_7077)"/>
<path d="M18.6929 12.3555C18.9221 12.2455 19.0151 12.1402 18.9172 11.8953C18.8474 11.7026 18.7944 11.5047 18.7586 11.3038C18.6917 10.9891 18.8032 10.7738 19.051 10.7122C19.3224 10.6424 19.538 10.7844 19.6285 11.1015C19.7102 11.3866 19.7833 11.6752 19.8676 11.9935C20.1689 11.9774 20.471 11.9774 20.7723 11.9935C21.518 12.0815 22.2177 12.3853 22.7772 12.8641C23.3368 13.3429 23.7295 13.9737 23.9024 14.6718C24.0739 15.3714 24.018 16.1043 23.7422 16.7728C23.4663 17.4414 22.9836 18.0137 22.3584 18.4137C21.7329 18.8085 20.996 19.0111 20.2464 18.9944C19.4968 18.9777 18.7705 18.7425 18.165 18.3203C17.66 17.9633 17.2589 17.489 17 16.9424C16.7412 16.3958 16.633 15.795 16.6859 15.1973C16.7388 14.5995 16.951 14.0246 17.3023 13.5272C17.6536 13.0298 18.1322 12.6264 18.6929 12.3555ZM18.2679 16.2239C18.4602 16.7157 18.8375 17.1214 19.3261 17.362C19.8148 17.6026 20.3799 17.6608 20.911 17.5253C21.4543 17.3813 21.9197 17.0454 22.2131 16.5858C22.5066 16.1262 22.6059 15.5773 22.491 15.0504C22.3864 14.5603 22.0989 14.1233 21.682 13.8206C21.265 13.5178 20.7471 13.3701 20.2245 13.4048C20.3224 13.7668 20.4104 14.1229 20.5219 14.4695C20.5405 14.5299 20.6458 14.5713 20.7251 14.6091C20.8538 14.662 20.9694 14.7403 21.0641 14.8389C21.1587 14.9375 21.2304 15.0541 21.2745 15.1811C21.3185 15.3081 21.3338 15.4425 21.3195 15.5756C21.3051 15.7087 21.2613 15.8373 21.191 15.953C21.1244 16.0636 21.035 16.1602 20.9282 16.237C20.8214 16.3137 20.6995 16.3691 20.5697 16.3997C20.4399 16.4303 20.305 16.4355 20.1731 16.4151C20.0411 16.3947 19.9149 16.3489 19.802 16.2807C19.6854 16.2073 19.5861 16.1116 19.5102 15.9996C19.4343 15.8877 19.3835 15.762 19.361 15.6304C19.3385 15.4988 19.3449 15.3642 19.3796 15.235C19.4143 15.1059 19.4767 14.985 19.5628 14.88C19.6267 14.7785 19.6508 14.6586 19.6309 14.5417C19.5702 14.2306 19.476 13.9265 19.3831 13.5953C18.8871 13.8215 18.4976 14.2166 18.2913 14.703C18.0849 15.1894 18.0765 15.732 18.2679 16.2239Z" fill="url(#paint2_linear_101_7077)"/>
<path d="M5.43784 11.9837C5.92085 11.9777 6.40021 12.0638 6.84795 12.2368C7.2957 12.4099 7.70278 12.6664 8.04538 12.9915C8.38798 13.3166 8.65932 13.7037 8.84331 14.1301C9.0273 14.5565 9.12029 15.0136 9.11695 15.4748C9.1212 15.9357 9.02989 16.3929 8.8483 16.8199C8.66671 17.247 8.39839 17.6356 8.05884 17.9632C7.7193 18.2909 7.31525 18.5512 6.86988 18.7292C6.42452 18.9072 5.94666 18.9993 5.46386 19.0002C4.98095 19.0008 4.50275 18.9103 4.05662 18.7338C3.6105 18.5573 3.20523 18.2983 2.86434 17.9718C2.52344 17.6452 2.25356 17.2575 2.07019 16.831C1.88682 16.4045 1.79365 15.9476 1.79594 15.4866C1.79363 14.5614 2.17572 13.6731 2.85844 13.0164C3.54115 12.3598 4.46873 11.9884 5.43784 11.9837ZM5.46507 17.6007C6.04998 17.5945 6.60903 17.3692 7.02161 16.9733C7.43418 16.5774 7.6673 16.0427 7.67084 15.4842C7.66663 14.9248 7.43189 14.3894 7.01752 13.9938C6.60315 13.5982 6.04244 13.3742 5.45645 13.3702C5.16668 13.3713 4.87998 13.4271 4.61298 13.5346C4.34599 13.6421 4.10401 13.7991 3.90097 13.9965C3.69792 14.1939 3.53786 14.4277 3.43008 14.6845C3.32229 14.9413 3.26896 15.2159 3.27306 15.4925C3.26911 15.7688 3.32281 16.0431 3.43113 16.2993C3.53946 16.5556 3.70026 16.7886 3.90399 16.9849C4.10773 17.1812 4.35026 17.3367 4.61767 17.4424C4.88508 17.5481 5.172 17.6019 5.46144 17.6007H5.46507Z" fill="url(#paint3_linear_101_7077)"/>
<path d="M18.3081 2.39883C17.5811 2.2654 16.8631 2.0904 16.1581 1.87476C15.6947 1.74344 15.4468 1.88305 15.5125 2.33969C15.5823 2.72718 15.6728 3.11097 15.7839 3.48957C15.8136 3.63719 15.887 3.77369 15.9952 3.88288C16.1034 3.99207 16.2421 4.06949 16.3948 4.10599C17.0256 4.26689 17.6575 4.42304 18.2945 4.55909C18.5919 4.62179 18.6662 4.71761 18.4767 4.95658C18.3588 5.13402 18.1852 5.27132 17.9807 5.34887C17.7761 5.42643 17.5511 5.44025 17.3378 5.38837C16.5614 5.21388 15.799 4.98654 15.0565 4.70812C14.569 4.51212 14.1579 4.17567 13.8804 3.74576C13.6029 3.31585 13.473 2.81397 13.5087 2.31016C13.563 2.01847 13.6438 1.73188 13.7504 1.45365C13.955 0.996565 14.3035 0.611549 14.7475 0.352081C15.1916 0.0926133 15.7093 -0.0284427 16.2288 0.00563734C16.7877 0.0344744 17.3254 0.219783 17.7748 0.538517C18.2241 0.857251 18.5652 1.29524 18.7554 1.79786C18.9401 2.28053 18.8274 2.47809 18.3081 2.39883Z" fill="url(#paint4_linear_101_7077)"/>
<path d="M21.6598 11.2463C21.3505 11.1663 21.052 11.0523 20.7701 10.9068C20.5363 10.7904 20.341 10.6142 20.206 10.398C20.071 10.1818 20.0016 9.93402 20.0055 9.68233C20.0029 9.30193 20.1236 8.93008 20.3509 8.61769C20.5783 8.3053 20.9013 8.06769 21.2756 7.9374C21.3586 7.87587 21.4553 7.83344 21.5583 7.81342C21.6612 7.7934 21.7676 7.7963 21.8691 7.82194C21.9707 7.84758 22.0647 7.89525 22.1438 7.96123C22.2229 8.02721 22.285 8.10976 22.3253 8.2024C22.6529 8.70968 22.8111 9.30013 22.7788 9.8953C22.7074 10.2304 22.6122 10.5604 22.4938 10.8831C22.4716 10.9642 22.4308 11.0395 22.3743 11.1037C22.3178 11.1678 22.2471 11.2191 22.1672 11.2539C22.0874 11.2887 22.0004 11.306 21.9126 11.3047C21.8249 11.3034 21.7385 11.2835 21.6598 11.2463Z" fill="url(#paint5_linear_101_7077)"/>
<path d="M16.0242 2.0852C16.0763 2.06982 16.2325 2.2035 16.2411 2.28276C16.2498 2.36202 16.1519 2.47323 16.0502 2.66133C15.9102 2.48743 15.7764 2.39277 15.7851 2.30641C15.7937 2.22005 15.9238 2.10886 16.0242 2.0852Z" fill="url(#paint6_linear_101_7077)"/>
<path d="M5.40562 14.536C5.54169 14.528 5.67808 14.5464 5.80648 14.5902C5.93487 14.634 6.05259 14.7021 6.15258 14.7906C6.25256 14.8791 6.33267 14.986 6.3881 15.105C6.44352 15.2239 6.47316 15.3523 6.47508 15.4824C6.47453 15.7346 6.37294 15.9771 6.19115 16.1601C6.00936 16.3431 5.76107 16.4528 5.49729 16.4667C5.36359 16.4703 5.23041 16.4487 5.10551 16.403C4.9806 16.3573 4.86651 16.2886 4.76954 16.2006C4.67258 16.1127 4.59468 16.0073 4.54052 15.8905C4.48637 15.7738 4.4569 15.6479 4.45385 15.5203C4.44736 15.3957 4.46694 15.2711 4.51148 15.1539C4.55602 15.0366 4.62466 14.929 4.71327 14.8374C4.80189 14.7457 4.90873 14.6719 5.0276 14.6201C5.14648 14.5684 5.27503 14.5398 5.40562 14.536Z" fill="url(#paint7_linear_101_7077)"/>
<defs>
<linearGradient id="paint0_linear_101_7077" x1="13.8286" y1="4.14062" x2="13.8286" y2="17.4783" gradientUnits="userSpaceOnUse">
<stop stop-color="#DF4426"/>
<stop offset="1" stop-color="#911E08"/>
</linearGradient>
<linearGradient id="paint1_linear_101_7077" x1="3.83948" y1="4.87842" x2="3.83948" y2="14.232" gradientUnits="userSpaceOnUse">
<stop stop-color="#DF4426"/>
<stop offset="1" stop-color="#911E08"/>
</linearGradient>
<linearGradient id="paint2_linear_101_7077" x1="20.3363" y1="10.6948" x2="20.3363" y2="18.9954" gradientUnits="userSpaceOnUse">
<stop stop-color="#DF4426"/>
<stop offset="1" stop-color="#911E08"/>
</linearGradient>
<linearGradient id="paint3_linear_101_7077" x1="5.4565" y1="11.9834" x2="5.4565" y2="19.0002" gradientUnits="userSpaceOnUse">
<stop stop-color="#DF4426"/>
<stop offset="1" stop-color="#911E08"/>
</linearGradient>
<linearGradient id="paint4_linear_101_7077" x1="16.1707" y1="0" x2="16.1707" y2="5.41922" gradientUnits="userSpaceOnUse">
<stop stop-color="#DF4426"/>
<stop offset="1" stop-color="#911E08"/>
</linearGradient>
<linearGradient id="paint5_linear_101_7077" x1="21.3941" y1="7.80029" x2="21.3941" y2="11.3048" gradientUnits="userSpaceOnUse">
<stop stop-color="#DF4426"/>
<stop offset="1" stop-color="#911E08"/>
</linearGradient>
<linearGradient id="paint6_linear_101_7077" x1="16.0132" y1="2.08398" x2="16.0132" y2="2.66133" gradientUnits="userSpaceOnUse">
<stop stop-color="#DF4426"/>
<stop offset="1" stop-color="#911E08"/>
</linearGradient>
<linearGradient id="paint7_linear_101_7077" x1="5.46386" y1="14.5342" x2="5.46386" y2="16.4671" gradientUnits="userSpaceOnUse">
<stop stop-color="#DF4426"/>
<stop offset="1" stop-color="#911E08"/>
</linearGradient>
</defs>
</svg>
