<svg width="26" height="25" viewBox="0 0 26 25" fill="none" xmlns="http://www.w3.org/2000/svg">
<g clip-path="url(#clip0_13_2263)">
<path d="M25.1896 12.7343C25.1896 11.71 25.1066 10.9626 24.9269 10.1875H13.2432V14.8104H20.1012C19.963 15.9593 19.2164 17.6894 17.5571 18.852L17.5339 19.0068L21.228 21.8716L21.484 21.8971C23.8345 19.724 25.1896 16.5267 25.1896 12.7343Z" fill="#4285F4"/>
<path d="M13.2431 24.9142C16.603 24.9142 19.4236 23.8069 21.4839 21.8969L17.557 18.8517C16.5062 19.5853 15.0958 20.0974 13.2431 20.0974C9.9523 20.0974 7.15928 17.9244 6.16365 14.9209L6.01772 14.9333L2.17646 17.9092L2.12622 18.049C4.17258 22.1182 8.37597 24.9142 13.2431 24.9142Z" fill="#34A853"/>
<path d="M6.16385 14.9209C5.90114 14.1458 5.74911 13.3153 5.74911 12.4572C5.74911 11.599 5.90114 10.7685 6.15003 9.99343L6.14307 9.82835L2.25367 6.80469L2.12642 6.86528C1.28302 8.55392 0.799072 10.4502 0.799072 12.4572C0.799072 14.4641 1.28302 16.3603 2.12642 18.049L6.16385 14.9209Z" fill="#FBBC05"/>
<path d="M13.2431 4.8167C15.5798 4.8167 17.156 5.8271 18.0548 6.67147L21.5668 3.23884C19.4099 1.23187 16.6029 0 13.2431 0C8.37596 0 4.17258 2.7959 2.12622 6.86517L6.14983 9.99332C7.15928 6.98979 9.95229 4.8167 13.2431 4.8167Z" fill="#EB4335"/>
</g>
<defs>
<clipPath id="clip0_13_2263">
<rect width="24.4048" height="25" fill="white" transform="translate(0.797607)"/>
</clipPath>
</defs>
</svg>
