<svg width="246" height="144" viewBox="0 0 246 144" fill="none" xmlns="http://www.w3.org/2000/svg">
<path d="M191.494 92.3106C190.986 92.3004 191.267 93.3027 192.003 92.734" stroke="#7B4234" stroke-width="2"/>
<path d="M191.494 92.3109C191.146 92.3109 191.016 93.0328 191.849 92.8784C196.246 91.9806 200.527 91.1758 204.96 90.0691C232.113 84.3563 234.529 83.211 236.456 84.009C242.323 89.5708 226.108 90.1383 223.353 91.2916C208.788 94.6684 194.818 97.1996 180.508 100.855C176.182 102.708 180.586 98.1304 181.046 96.5969C198.082 66.7195 215.263 37.7275 231.841 7.91477C232.084 6.4142 224.783 7.57424 223.207 7.38582C222.72 7.33041 222.232 7.30274 221.742 7.30296C122.486 6.97493 128.201 9.11 122.377 2.8512C119.539 -1.00805 121.933 0.290478 122.356 0.0589227H244.256C244.455 0.0589227 244.229 -0.231656 245.07 0.477765C244.251 2.5663 242.675 4.50728 241.631 6.52998C225.041 35.1667 207.758 63.2746 191.494 92.3109Z" fill="#144051"/>
<path d="M207.367 15.1144C211.729 22.4004 208.779 10.3857 210.878 10.4413C210.538 10.4322 224.749 10.5298 226.271 10.4277C219.369 25.8238 206.705 44.4379 197.704 60.7841C171.964 105.01 173.773 102.842 170.896 103.535C168.966 103.639 166.894 105.194 165.302 104.671C167.221 101.126 169.388 97.3777 171.448 93.8317C181.406 76.5786 190.384 60.5105 200.016 43.6365C222.008 10.405 188.007 18.7784 182.076 17.6751C142.812 16.7421 136.89 20.1314 134.077 11.0372C134.112 9.91236 134.58 10.6002 134.572 10.43H199.746C200.14 10.279 204.842 10.3584 207.367 15.1144Z" fill="#DE4727"/>
<path d="M195.397 27.8921C175.62 27.4903 157.766 28.5731 140.346 27.4097C137.092 26.8614 131.659 24.6151 131.238 21.0192C134.245 20.7684 137.676 21.0453 140.861 20.9511C199.421 21.9443 214.204 14.3949 197.428 40.9954C186.199 60.6877 175.876 78.6503 164.894 97.7218C159.659 107.111 160.661 106.294 154.037 108.063C149.625 109.773 152.539 107.297 153.268 105.403C200.546 20.6185 196.856 28.7922 195.397 27.8921Z" fill="#144051"/>
<path d="M191.494 92.3105C191.448 92.6261 191.617 92.7646 192.003 92.7339C191.997 93.113 190.56 92.667 191.494 92.3105Z" fill="#DE4727"/>
<path d="M232.261 95.8102C251.093 92.8965 244.395 108.59 238.948 103.494C238.153 102.805 238.37 100.429 239.712 101.806C240.808 103.381 243.035 102.623 243.068 100.444C243.094 92.9589 222.707 100.862 217.101 101.885C202.587 105.725 193.791 108.1 186.113 110.285C156.431 118.761 156.254 116.007 145.28 134.391C144.11 136.007 143.918 136.64 146.168 137.013C162.967 139.587 163.61 120.677 175.823 118.398C192.745 113.858 216.118 109.127 214.814 110.398C209.304 112.094 204.065 113.69 198.461 115.444C162.867 123.914 176.167 136.627 155.328 143.129C124.531 144.692 132.978 143.561 134.378 139.167C141.23 127.41 145.541 117.785 147.772 116.965C186.239 105.314 227.708 96.0951 232.261 95.8102Z" fill="#144051"/>
<path d="M170.261 118.95C163.503 122.411 160.292 129.597 154.906 132.865C153.884 133.748 146.301 135.499 148.322 133.52C151.406 129.104 153.339 124.871 157.758 122.316C162.13 119.425 175.352 116.86 170.261 118.95Z" fill="#DE4727"/>
<path d="M18.5676 59.5635V61.4363L8.16006 87.0402L1.90694 87.0572L13.5301 61.4363H6.45291C4.78814 61.4363 3.50437 61.8321 2.60161 62.6236C1.69885 63.4152 1.24784 64.5461 1.2486 66.0164H2.10341e-05V62.8938C-0.00165818 62.3462 0.097219 61.8029 0.291735 61.2911C0.494983 60.7673 0.86889 60.3274 1.35303 60.0425C1.86608 59.7239 2.5948 59.5642 3.53918 59.5635H18.5676Z" fill="#DE4727"/>
<path d="M31.4166 84.7076C30.6947 83.9865 30.0844 83.0152 29.5857 81.7939L20.2611 59.5635H18.3882L6.10672 87.0402H8.27131L11.6845 79.4602H22.7582L23.7162 81.7905C24.3829 83.3728 25.1809 84.5525 26.1101 85.3296C27.0394 86.1068 28.0106 86.6134 29.0238 86.8495C29.9717 87.0769 30.9424 87.1953 31.9172 87.2025C32.2717 87.1998 32.626 87.179 32.9784 87.1401C33.2935 87.1129 33.6064 87.0644 33.9149 86.9948V85.9539C32.9629 85.8404 32.0798 85.3999 31.4166 84.7076ZM12.5585 77.5896L17.3882 66.7235L21.9671 77.5896H12.5585Z" fill="#144051"/>
<path d="M50.63 71.9488C50.2966 70.9223 49.7257 69.989 48.9637 69.2247C48.2028 68.4877 47.2851 67.9325 46.2792 67.6004C45.2244 67.2409 44.017 67.0608 42.6572 67.0601C41.3946 67.0514 40.1338 67.1559 38.8899 67.3722C37.7382 67.5796 36.9126 67.9609 36.4132 68.5164C35.9192 69.0602 35.6063 69.7439 35.5176 70.4732C35.4212 71.2052 35.3723 71.9427 35.3712 72.681H37.6618C37.9947 71.1259 38.5358 70.1127 39.2849 69.6412C40.046 69.1658 40.928 68.9199 41.8252 68.9329C42.6576 68.9329 43.3719 69.141 43.9682 69.5572C44.5645 69.9734 45.0155 70.6673 45.3212 71.639C45.6239 72.6113 45.7753 73.9299 45.7753 75.5947H45.151C42.1801 75.5947 39.8763 75.8372 38.2395 76.3223C36.6027 76.8073 35.4718 77.5126 34.8468 78.438C34.2225 79.368 33.9103 80.499 33.9103 81.8308C33.8996 82.6173 34.0543 83.3973 34.3644 84.1202C34.6661 84.8106 35.1303 85.4177 35.7174 85.8898C36.3742 86.4078 37.1234 86.7964 37.9251 87.0351C38.7991 87.312 39.8188 87.4505 40.9841 87.4505C42.2327 87.4505 43.2876 87.2148 44.1487 86.7434C45.0098 86.2719 45.6201 85.7449 45.9796 85.1622H46.1975L47.6549 87.0351H51.1918V75.7979C51.1918 74.3276 51.0045 73.0446 50.63 71.9488ZM45.7798 82.6685C45.5528 83.2504 45.1366 83.847 44.5312 84.4585C43.9259 85.0699 43.1627 85.3752 42.2418 85.3745C41.4094 85.3745 40.7503 85.0759 40.2645 84.4789C39.7787 83.8819 39.5358 83.0007 39.5358 81.8353C39.5358 80.3643 39.9731 79.267 40.8479 78.5436C41.7227 77.8202 43.1604 77.4592 45.1612 77.4607H45.7855L45.7798 82.6685Z" fill="#144051"/>
<path d="M73.2974 61.7281C73.0749 60.9517 72.6931 60.3966 72.1521 60.0629C71.611 59.7292 70.8543 59.5627 69.8819 59.5635H64.8876V60.8121H65.3042C66.5528 60.8121 67.3507 61.1938 67.6981 61.9573C68.0454 62.7209 68.2187 63.7269 68.2179 64.9755V68.3058C67.6304 67.9604 67.0098 67.6745 66.3655 67.4522C65.5547 67.1774 64.7028 67.0437 63.8468 67.0572C61.849 67.0572 60.1843 67.5082 58.8524 68.4102C57.5208 69.3112 56.4851 70.5855 55.8751 72.0731C55.2229 73.6145 54.8971 75.3425 54.8978 77.257C54.8978 79.145 55.2236 80.8658 55.8751 82.4193C56.5267 83.9728 57.4983 85.201 58.79 86.1038C60.0802 87.005 61.6969 87.4556 63.6402 87.4556C64.8328 87.4556 65.8388 87.2127 66.6583 86.7269C67.4779 86.2411 68.0673 85.7212 68.4268 85.1673H68.6356L70.0919 87.0402H73.6311V64.9755C73.6303 63.5884 73.5191 62.506 73.2974 61.7281ZM68.2179 82.8767C68.0054 83.2816 67.7546 83.6651 67.4688 84.022C67.1237 84.4629 66.7004 84.8365 66.2202 85.1242C65.6912 85.4365 65.0851 85.5938 64.4711 85.5782C63.4994 85.5782 62.7223 85.2173 62.1396 84.4954C61.5569 83.7735 61.1407 82.7814 60.891 81.5192C60.6283 80.1124 60.5029 78.6835 60.5165 77.2525C60.5002 75.8132 60.6326 74.3762 60.9115 72.9642C61.1763 71.7156 61.6133 70.7318 62.2225 70.013C62.8316 69.2941 63.6504 68.9331 64.6788 68.9301C65.3797 68.9206 66.0751 69.055 66.7219 69.3251C67.2553 69.5459 67.7587 69.8331 68.2202 70.1798L68.2179 82.8767Z" fill="#144051"/>
<path d="M93.4029 69.7637L91.2815 71.3857C90.9738 70.9686 90.6013 70.6034 90.1782 70.304C89.664 69.9336 89.0421 69.7429 88.4086 69.7614C87.521 69.7614 86.7719 69.8867 86.1612 70.1371C85.6195 70.3429 85.1241 70.6543 84.7037 71.0531C84.7594 71.5526 84.8002 71.9555 84.8286 72.2597C84.857 72.5639 84.8706 72.8272 84.8706 73.0543V87.0395H79.4552V72.8851C79.4552 71.6358 79.2887 70.6297 78.9557 69.867C78.6228 69.1042 77.8328 68.7224 76.5857 68.7217H76.1691V67.4731H80.2917C81.2346 67.4731 81.9765 67.5912 82.5176 67.8273C83.0638 68.0679 83.5118 68.4875 83.7877 69.0168C84.2872 68.5726 84.9743 68.1356 85.849 67.7058C86.7238 67.276 87.7855 67.0607 89.0341 67.0599C89.5959 67.0538 90.1561 67.1237 90.6992 67.2677C91.1655 67.3909 91.6037 67.6029 91.9898 67.892C92.4384 68.2 92.8032 68.6151 93.0511 69.0997C93.155 69.3278 93.2725 69.5496 93.4029 69.7637Z" fill="#144051"/>
<path d="M113.014 75.3824C113.014 73.7176 112.611 72.261 111.806 71.0124C110.996 69.7579 109.857 68.7494 108.514 68.0964C107.126 67.404 105.572 67.0574 103.852 67.0566C102.133 67.0559 100.58 67.4445 99.1918 68.2224C97.8032 69.0003 96.706 70.1452 95.9001 71.6571C95.0942 73.169 94.6916 75.0355 94.6924 77.2564C94.6924 79.1989 95.081 80.9394 95.8581 82.4778C96.6016 83.9823 97.7563 85.2452 99.1884 86.1202C100.631 87.0086 102.325 87.4524 104.268 87.4516C105.793 87.4516 107.063 87.2159 108.076 86.7445C109.009 86.3289 109.855 85.743 110.573 85.0169C111.155 84.4255 111.678 83.7793 112.135 83.0873L110.844 82.1293C110.159 83.0641 109.338 83.8919 108.409 84.5856C107.506 85.2515 106.333 85.5844 104.89 85.5844C103.528 85.5844 102.425 85.0086 101.58 83.8569C100.736 82.7051 100.313 80.7555 100.311 78.0078H112.847L113.014 75.3824ZM100.317 76.1327C100.317 74.2992 100.483 72.8614 100.816 71.8194C101.149 70.7774 101.586 70.0351 102.127 69.5924C102.667 69.149 103.243 68.9269 103.855 68.9261C104.909 68.9261 105.762 69.4395 106.414 70.4664C107.067 71.4933 107.393 73.3809 107.394 76.1293L100.317 76.1327Z" fill="#144051"/>
<path d="M122.63 62.8937C122.63 63.6156 122.408 64.1831 121.964 64.5963C121.526 65.0103 120.942 65.2346 120.339 65.2206C119.285 65.2206 118.502 64.9013 117.989 64.2626C117.48 63.6409 117.207 62.86 117.218 62.0571C117.218 61.3352 117.44 60.7677 117.883 60.3545C118.321 59.9402 118.905 59.7155 119.507 59.7291C120.562 59.7291 121.346 60.0488 121.859 60.6882C122.367 61.3101 122.64 62.0909 122.63 62.8937Z" fill="#DE4727"/>
<path d="M123.042 72.8847V87.0391H117.63V72.8847C117.63 71.6353 117.456 70.6293 117.109 69.8665C116.762 69.1038 115.964 68.722 114.715 68.7212H114.302V67.4727H119.296C120.267 67.4727 121.024 67.6391 121.566 67.9721C122.109 68.305 122.491 68.8601 122.712 69.6372C122.932 70.4136 123.042 71.4961 123.042 72.8847Z" fill="#144051"/>
<path d="M147.106 74.7166V87.0401H141.692V74.6746C141.692 73.3125 141.519 72.2304 141.172 71.4283C140.826 70.6262 140.361 70.0431 139.779 69.6792C139.162 69.31 138.454 69.1227 137.735 69.1389C137.038 69.1275 136.343 69.226 135.675 69.4306C135.143 69.5918 134.644 69.8454 134.2 70.1797V87.0401H128.788V72.8857C128.788 71.6364 128.622 70.6304 128.289 69.8676C127.957 69.1048 127.166 68.7231 125.916 68.7223H125.501V67.4737H129.625C130.568 67.4737 131.311 67.5918 131.854 67.8279C132.398 68.0693 132.845 68.4888 133.12 69.0174C133.62 68.5452 134.334 68.101 135.264 67.6848C136.194 67.2686 137.506 67.0605 139.199 67.0605C140.948 67.0605 142.405 67.3254 143.57 67.8551C144.707 68.3558 145.64 69.2295 146.213 70.3318C146.808 71.4525 147.106 72.9141 147.106 74.7166Z" fill="#144051"/>
</svg>
