<svg width="44" height="44" viewBox="0 0 44 44" fill="none" xmlns="http://www.w3.org/2000/svg">
<rect width="44" height="44" rx="10" fill="white"/>
<path d="M17.8 17.1999C17.8 17.6773 17.6103 18.1351 17.2727 18.4727C16.9352 18.8103 16.4773 18.9999 16 18.9999C15.5226 18.9999 15.0647 18.8103 14.7272 18.4727C14.3896 18.1351 14.2 17.6773 14.2 17.1999C14.2 16.7225 14.3896 16.2647 14.7272 15.9271C15.0647 15.5895 15.5226 15.3999 16 15.3999C16.4773 15.3999 16.9352 15.5895 17.2727 15.9271C17.6103 16.2647 17.8 16.7225 17.8 17.1999ZM17.8 21.9999C17.8 22.4773 17.6103 22.9351 17.2727 23.2727C16.9352 23.6103 16.4773 23.7999 16 23.7999C15.5226 23.7999 15.0647 23.6103 14.7272 23.2727C14.3896 22.9351 14.2 22.4773 14.2 21.9999C14.2 21.5225 14.3896 21.0647 14.7272 20.7271C15.0647 20.3895 15.5226 20.1999 16 20.1999C16.4773 20.1999 16.9352 20.3895 17.2727 20.7271C17.6103 21.0647 17.8 21.5225 17.8 21.9999ZM17.8 26.7999C17.8 27.2773 17.6103 27.7351 17.2727 28.0727C16.9352 28.4103 16.4773 28.5999 16 28.5999C15.5226 28.5999 15.0647 28.4103 14.7272 28.0727C14.3896 27.7351 14.2 27.2773 14.2 26.7999C14.2 26.3225 14.3896 25.8647 14.7272 25.5271C15.0647 25.1895 15.5226 24.9999 16 24.9999C16.4773 24.9999 16.9352 25.1895 17.2727 25.5271C17.6103 25.8647 17.8 26.3225 17.8 26.7999Z" fill="#3E4462"/>
<path fill-rule="evenodd" clip-rule="evenodd" d="M19 17.7997C19 17.6406 19.0632 17.488 19.1757 17.3754C19.2883 17.2629 19.4409 17.1997 19.6 17.1997H29.2C29.3591 17.1997 29.5117 17.2629 29.6243 17.3754C29.7368 17.488 29.8 17.6406 29.8 17.7997C29.8 17.9588 29.7368 18.1114 29.6243 18.224C29.5117 18.3365 29.3591 18.3997 29.2 18.3997H19.6C19.4409 18.3997 19.2883 18.3365 19.1757 18.224C19.0632 18.1114 19 17.9588 19 17.7997ZM19 22.5997C19 22.4406 19.0632 22.288 19.1757 22.1754C19.2883 22.0629 19.4409 21.9997 19.6 21.9997H29.2C29.3591 21.9997 29.5117 22.0629 29.6243 22.1754C29.7368 22.288 29.8 22.4406 29.8 22.5997C29.8 22.7588 29.7368 22.9114 29.6243 23.024C29.5117 23.1365 29.3591 23.1997 29.2 23.1997H19.6C19.4409 23.1997 19.2883 23.1365 19.1757 23.024C19.0632 22.9114 19 22.7588 19 22.5997ZM19 27.3997C19 27.2406 19.0632 27.088 19.1757 26.9754C19.2883 26.8629 19.4409 26.7997 19.6 26.7997H29.2C29.3591 26.7997 29.5117 26.8629 29.6243 26.9754C29.7368 27.088 29.8 27.2406 29.8 27.3997C29.8 27.5588 29.7368 27.7115 29.6243 27.824C29.5117 27.9365 29.3591 27.9997 29.2 27.9997H19.6C19.4409 27.9997 19.2883 27.9365 19.1757 27.824C19.0632 27.7115 19 27.5588 19 27.3997Z" fill="#3E4462"/>
</svg>
