<svg width="34" height="34" viewBox="0 0 34 34" fill="none" xmlns="http://www.w3.org/2000/svg">
<ellipse cx="17.3647" cy="17.3223" rx="16.5482" ry="16.5" fill="#DF4426"/>
<mask id="mask0_483_9818" style="mask-type:alpha" maskUnits="userSpaceOnUse" x="0" y="0" width="34" height="34">
<ellipse cx="17.3647" cy="17.3223" rx="16.5482" ry="16.5" fill="#FFE14D"/>
</mask>
<g mask="url(#mask0_483_9818)">
<path d="M25.8896 35.8223L17.3647 26.8223L22.3794 18.8223V8.32227L36.9218 24.8223L25.8896 35.8223Z" fill="#DF4426"/>
</g>
<g clip-path="url(#clip0_483_9818)">
<path d="M17.365 6.82715C12.948 6.82715 9.34546 10.4192 9.34546 14.8233C9.34546 16.5701 9.90062 18.2308 10.9494 19.6209L16.8715 27.5761C16.9577 27.6991 17.1922 27.8221 17.365 27.8221C17.5501 27.8221 17.7722 27.6868 17.8585 27.5761C17.8831 27.5391 23.8423 19.5348 23.8917 19.461C23.904 19.461 23.904 19.461 23.904 19.4488C24.8664 18.0955 25.3845 16.4963 25.3845 14.8233C25.3845 10.4193 21.782 6.82715 17.365 6.82715ZM17.365 19.1289C14.9839 19.1289 13.0468 17.1975 13.0468 14.8233C13.0468 12.4491 14.9839 10.5177 17.365 10.5177C19.7461 10.5177 21.6832 12.4491 21.6832 14.8233C21.6832 17.1975 19.7461 19.1289 17.365 19.1289Z" fill="white"/>
<path d="M17.3647 6.82227V10.5128C19.7458 10.5128 21.683 12.4442 21.683 14.8184C21.683 17.1927 19.7458 19.124 17.3647 19.124V27.8173C17.5499 27.8173 17.772 27.682 17.8583 27.5712C17.8828 27.5343 23.842 19.5299 23.8914 19.4561C23.9038 19.4561 23.9038 19.4561 23.9038 19.4439C24.8661 18.0907 25.3842 16.4914 25.3842 14.8184C25.3843 10.4143 21.7817 6.82227 17.3647 6.82227Z" fill="white"/>
</g>
<defs>
<clipPath id="clip0_483_9818">
<rect width="21.0614" height="21" fill="white" transform="translate(6.83398 6.82227)"/>
</clipPath>
</defs>
</svg>
