<svg width="23" height="24" viewBox="0 0 23 24" fill="none" xmlns="http://www.w3.org/2000/svg">
<path opacity="0.4" d="M15.5164 2.4165H7.48458C4.57125 2.4165 2.875 4.12234 2.875 7.04525V16.9448C2.875 19.9157 4.57125 21.5832 7.48458 21.5832H15.5164C18.4767 21.5832 20.125 19.9157 20.125 16.9448V7.04525C20.125 4.12234 18.4767 2.4165 15.5164 2.4165Z" fill="#9796A1"/>
<path fill-rule="evenodd" clip-rule="evenodd" d="M7.74278 6.87256V6.88214C7.32974 6.88214 6.99528 7.21756 6.99528 7.62964C6.99528 8.04173 7.32974 8.37714 7.74278 8.37714H10.6072C11.0203 8.37714 11.3557 8.04173 11.3557 7.6191C11.3557 7.20798 11.0203 6.87256 10.6072 6.87256H7.74278ZM15.2561 12.7089H7.74278C7.32974 12.7089 6.99528 12.3734 6.99528 11.9614C6.99528 11.5493 7.32974 11.2129 7.74278 11.2129H15.2561C15.6682 11.2129 16.0036 11.5493 16.0036 11.9614C16.0036 12.3734 15.6682 12.7089 15.2561 12.7089ZM15.2563 17.0883H7.74293C7.45543 17.1267 7.17751 16.9829 7.02418 16.7433C6.87085 16.4942 6.87085 16.1779 7.02418 15.9383C7.17751 15.6892 7.45543 15.555 7.74293 15.5838H15.2563C15.6386 15.6221 15.9271 15.9479 15.9271 16.3408C15.9271 16.7232 15.6386 17.05 15.2563 17.0883Z" fill="#9796A1"/>
</svg>
