<svg width="23" height="24" viewBox="0 0 23 24" fill="none" xmlns="http://www.w3.org/2000/svg">
<path opacity="0.4" d="M21.0828 8.21725V15.7827C21.0873 17.0639 20.5816 18.2943 19.6772 19.2027C18.7727 20.111 17.5438 20.6227 16.2614 20.625H6.76344C5.47874 20.6272 4.24588 20.119 3.33665 19.2122C2.42743 18.3055 1.9165 17.0747 1.9165 15.7912V8.21725C1.9172 7.65363 2.01815 7.09462 2.21465 6.56629C2.90701 4.65175 4.72581 3.37574 6.76344 3.375H16.2358C18.2983 3.37385 20.1348 4.67898 20.8102 6.62586C20.9976 7.13524 21.09 7.67461 21.0828 8.21725Z" fill="#9796A1"/>
<path d="M20.8104 6.63437L20.7167 6.71096C18.9534 8.08109 13.2461 12.668 13.2461 12.668C12.2537 13.4743 10.8312 13.4743 9.83876 12.668C9.83876 12.668 4.16554 8.0896 2.40225 6.71947L2.21484 6.5748C2.90436 4.6569 4.72381 3.37703 6.76364 3.375H16.236C18.3007 3.3751 20.1379 4.68413 20.8104 6.63437Z" fill="#9796A1"/>
</svg>
