<svg width="23" height="24" viewBox="0 0 23 24" fill="none" xmlns="http://www.w3.org/2000/svg">
<path opacity="0.4" d="M11.5001 13.0647C14.4773 13.0647 16.8908 10.681 16.8908 7.74058C16.8908 4.80017 14.4773 2.4165 11.5001 2.4165C8.52287 2.4165 6.10938 4.80017 6.10938 7.74058C6.10938 10.681 8.52287 13.0647 11.5001 13.0647Z" fill="#9796A1"/>
<path d="M20.1156 18.3975C20.1205 18.3218 20.1205 18.2458 20.1156 18.17C20.0943 17.8899 20.0148 17.6164 19.8817 17.3648C19.3577 16.3408 17.8885 15.877 16.6626 15.6144C15.788 15.4324 14.8994 15.3153 14.005 15.2644L13.0692 15.1943H12.6481H12.1241H10.8702H10.3461H9.92504L8.98926 15.2644C8.09491 15.3153 7.20627 15.4324 6.33166 15.6144C5.10579 15.842 3.63663 16.3146 3.11259 17.3648C2.97944 17.6164 2.89998 17.8899 2.87865 18.17C2.87378 18.2458 2.87378 18.3218 2.87865 18.3975C2.87416 18.4733 2.87416 18.5493 2.87865 18.6251C2.9041 18.9027 2.98672 19.1732 3.12195 19.4215C3.64598 20.4455 5.11515 20.9093 6.34102 21.1719C7.21726 21.3454 8.10522 21.4624 8.99862 21.522L9.9344 21.5832H10.159H10.3555H12.6575H12.854H13.0786L14.0144 21.522C14.9078 21.4624 15.7957 21.3454 16.672 21.1719C17.8979 20.9356 19.367 20.4717 19.8911 19.4215C20.02 19.1653 20.0992 18.8897 20.125 18.6076C20.1262 18.5375 20.1231 18.4673 20.1156 18.3975Z" fill="#9796A1"/>
</svg>
