<svg width="23" height="24" viewBox="0 0 23 24" fill="none" xmlns="http://www.w3.org/2000/svg">
<path fill-rule="evenodd" clip-rule="evenodd" d="M21.0798 8.52616H17.0215C15.133 8.52948 13.6031 10.0212 13.5997 11.8625C13.5971 13.7081 15.1287 15.2064 17.0215 15.2089H21.0832V15.5021C21.0832 18.7213 19.1316 20.625 15.8289 20.625H7.17158C3.8681 20.625 1.9165 18.7213 1.9165 15.5021V8.49045C1.9165 5.27118 3.8681 3.375 7.17158 3.375H15.8255C19.1282 3.375 21.0798 5.27118 21.0798 8.49045V8.52616ZM6.45852 8.51878H11.8635H11.8669H11.8737C12.2784 8.51712 12.6055 8.19569 12.6038 7.80034C12.6021 7.40582 12.2716 7.08689 11.8669 7.08855H6.45852C6.05644 7.09021 5.73019 7.40832 5.72848 7.80117C5.72678 8.19569 6.05389 8.51712 6.45852 8.51878Z" fill="#9796A1"/>
<path opacity="0.4" d="M15.3693 12.2841C15.5698 13.1957 16.369 13.837 17.2814 13.8203H20.3959C20.7755 13.8203 21.0835 13.5059 21.0835 13.1173V10.6912C21.0827 10.3034 20.7755 9.98814 20.3959 9.9873H17.2081C16.1702 9.99064 15.3319 10.8522 15.3335 11.9138C15.3335 12.0381 15.3457 12.1623 15.3693 12.2841Z" fill="#9796A1"/>
<path d="M17.2498 12.8625C17.7791 12.8625 18.2082 12.4334 18.2082 11.9041C18.2082 11.3749 17.7791 10.9458 17.2498 10.9458C16.7206 10.9458 16.2915 11.3749 16.2915 11.9041C16.2915 12.4334 16.7206 12.8625 17.2498 12.8625Z" fill="#9796A1"/>
</svg>
