<svg width="20" height="20" viewBox="0 0 20 20" fill="none" xmlns="http://www.w3.org/2000/svg">
<rect y="0.416504" width="19.1667" height="19.1667" rx="6.70833" fill="#9796A1"/>
<rect x="4.7915" y="2.33301" width="10.5417" height="13.4167" fill="white"/>
<rect x="4.7915" y="2.33301" width="10.5417" height="10.5417" fill="white"/>
<path d="M9.58333 0.416504C4.29253 0.416504 0 4.70904 0 9.99984C0 15.2906 4.29253 19.5832 9.58333 19.5832C14.8741 19.5832 19.1667 15.2906 19.1667 9.99984C19.1667 4.70904 14.8741 0.416504 9.58333 0.416504ZM9.28385 15.5901C9.08642 15.5901 8.89341 15.5316 8.72925 15.4219C8.56508 15.3122 8.43713 15.1563 8.36158 14.9739C8.28602 14.7915 8.26625 14.5907 8.30477 14.3971C8.34329 14.2035 8.43836 14.0256 8.57798 13.886C8.71758 13.7464 8.89546 13.6513 9.0891 13.6128C9.28275 13.5743 9.48346 13.594 9.66587 13.6696C9.84828 13.7451 10.0042 13.8731 10.1139 14.0372C10.2236 14.2014 10.2821 14.3944 10.2821 14.5919C10.2821 14.8566 10.1769 15.1105 9.98973 15.2977C9.80252 15.4849 9.54861 15.5901 9.28385 15.5901ZM10.953 10.499C10.1439 11.042 10.0326 11.5397 10.0326 11.9964C10.0326 12.1817 9.95893 12.3594 9.82788 12.4905C9.69684 12.6215 9.5191 12.6951 9.33377 12.6951C9.14844 12.6951 8.9707 12.6215 8.83965 12.4905C8.7086 12.3594 8.63498 12.1817 8.63498 11.9964C8.63498 10.9028 9.13811 10.0333 10.1733 9.33799C11.1356 8.69211 11.6797 8.28282 11.6797 7.38289C11.6797 6.77095 11.3303 6.30626 10.6071 5.96236C10.4368 5.8815 10.058 5.80264 9.59182 5.80813C9.00684 5.81561 8.55263 5.95537 8.20273 6.23688C7.54288 6.76796 7.48698 7.34595 7.48698 7.35444C7.48255 7.4462 7.4601 7.5362 7.42089 7.61929C7.38169 7.70237 7.3265 7.77693 7.25849 7.83869C7.19047 7.90044 7.11095 7.9482 7.02448 7.97923C6.93801 8.01026 6.84627 8.02395 6.7545 8.01953C6.66274 8.01511 6.57274 7.99265 6.48965 7.95345C6.40657 7.91424 6.33202 7.85905 6.27026 7.79104C6.2085 7.72302 6.16074 7.64351 6.12971 7.55703C6.09868 7.47056 6.08499 7.37882 6.08941 7.28705C6.0949 7.16577 6.17925 6.07317 7.32576 5.15077C7.92023 4.6726 8.67641 4.42403 9.57185 4.41305C10.2058 4.40557 10.8012 4.51288 11.205 4.70355C12.4134 5.27505 13.0773 6.2279 13.0773 7.38289C13.0773 9.07145 11.9487 9.82963 10.953 10.499Z" fill="#9796A1"/>
</svg>
