<svg width="23" height="24" viewBox="0 0 23 24" fill="none" xmlns="http://www.w3.org/2000/svg">
<path opacity="0.16" d="M10.072 4.01215C10.2518 3.81138 10.4719 3.65077 10.7179 3.54081C10.9639 3.43086 11.2304 3.37402 11.4999 3.37402C11.7694 3.37402 12.0359 3.43086 12.2819 3.54081C12.528 3.65077 12.748 3.81138 12.9278 4.01215L13.5987 4.76157C13.7904 4.97575 14.0278 5.14407 14.2934 5.25405C14.559 5.36403 14.8459 5.41287 15.1329 5.39694L16.1392 5.34136C16.4083 5.32652 16.6776 5.36862 16.9294 5.46491C17.1811 5.5612 17.4097 5.70951 17.6003 5.90015C17.7909 6.0908 17.9391 6.3195 18.0352 6.57131C18.1314 6.82312 18.1734 7.09239 18.1584 7.36153L18.1028 8.36682C18.087 8.65368 18.1359 8.94042 18.2459 9.20583C18.3559 9.47124 18.5241 9.70853 18.7382 9.90015L19.4876 10.571C19.6885 10.7508 19.8493 10.9709 19.9593 11.217C20.0694 11.4632 20.1263 11.7298 20.1263 11.9994C20.1263 12.269 20.0694 12.5356 19.9593 12.7817C19.8493 13.0279 19.6885 13.248 19.4876 13.4278L18.7382 14.0986C18.524 14.2903 18.3557 14.5278 18.2457 14.7934C18.1357 15.059 18.0869 15.3459 18.1028 15.6329L18.1584 16.6392C18.1732 16.9083 18.1311 17.1775 18.0349 17.4293C17.9386 17.6811 17.7903 17.9097 17.5996 18.1003C17.409 18.2908 17.1803 18.439 16.9285 18.5352C16.6766 18.6314 16.4074 18.6733 16.1382 18.6584L15.1329 18.6028C14.8461 18.587 14.5593 18.6359 14.2939 18.7459C14.0285 18.8559 13.7912 19.0241 13.5996 19.2382L12.9288 19.9876C12.749 20.1885 12.5289 20.3492 12.2827 20.4593C12.0366 20.5693 11.77 20.6262 11.5004 20.6262C11.2308 20.6262 10.9642 20.5693 10.718 20.4593C10.4719 20.3492 10.2518 20.1885 10.072 19.9876L9.40115 19.2382C9.20943 19.024 8.97198 18.8557 8.70639 18.7457C8.44081 18.6357 8.15388 18.5868 7.86686 18.6028L6.86061 18.6584C6.59147 18.6732 6.32222 18.6311 6.07046 18.5348C5.81869 18.4385 5.59006 18.2902 5.39951 18.0996C5.20895 17.9089 5.06075 17.6802 4.96458 17.4284C4.86841 17.1766 4.82644 16.9073 4.84141 16.6382L4.89699 15.6329C4.91277 15.346 4.86386 15.0593 4.75388 14.7939C4.6439 14.5285 4.47567 14.2912 4.26161 14.0996L3.5122 13.4287C3.31126 13.249 3.15052 13.0288 3.04047 12.7827C2.93042 12.5365 2.87354 12.27 2.87354 12.0003C2.87354 11.7307 2.93042 11.4641 3.04047 11.218C3.15052 10.9719 3.31126 10.7517 3.5122 10.5719L4.26161 9.90111C4.4758 9.70938 4.64411 9.47194 4.7541 9.20635C4.86408 8.94076 4.91292 8.65383 4.89699 8.36682L4.84141 7.36057C4.82671 7.0915 4.86891 6.82236 4.96526 6.57071C5.06161 6.31906 5.20994 6.09055 5.40057 5.9001C5.59121 5.70965 5.81985 5.56153 6.0716 5.46542C6.32334 5.36931 6.59252 5.32736 6.86157 5.34232L7.86686 5.3979C8.15372 5.41368 8.44046 5.36478 8.70587 5.2548C8.97128 5.14482 9.20857 4.97658 9.4002 4.76252L10.071 4.01311" fill="#9796A1"/>
<path d="M10.072 4.01215C10.2518 3.81138 10.4719 3.65077 10.7179 3.54081C10.9639 3.43086 11.2304 3.37402 11.4999 3.37402C11.7694 3.37402 12.0359 3.43086 12.2819 3.54081C12.528 3.65077 12.748 3.81138 12.9278 4.01215L13.5987 4.76157C13.7904 4.97575 14.0278 5.14407 14.2934 5.25405C14.559 5.36403 14.8459 5.41287 15.1329 5.39694L16.1392 5.34136C16.4083 5.32652 16.6776 5.36862 16.9294 5.46491C17.1811 5.5612 17.4097 5.70951 17.6003 5.90015C17.7909 6.0908 17.9391 6.3195 18.0352 6.57131C18.1314 6.82312 18.1734 7.09239 18.1584 7.36153L18.1028 8.36682C18.087 8.65368 18.1359 8.94042 18.2459 9.20583C18.3559 9.47124 18.5241 9.70853 18.7382 9.90015L19.4876 10.571C19.6885 10.7508 19.8493 10.9709 19.9593 11.217C20.0694 11.4632 20.1263 11.7298 20.1263 11.9994C20.1263 12.269 20.0694 12.5356 19.9593 12.7817C19.8493 13.0279 19.6885 13.248 19.4876 13.4278L18.7382 14.0986C18.524 14.2903 18.3557 14.5278 18.2457 14.7934C18.1357 15.059 18.0869 15.3459 18.1028 15.6329L18.1584 16.6392C18.1732 16.9083 18.1311 17.1775 18.0349 17.4293C17.9386 17.6811 17.7903 17.9097 17.5996 18.1003C17.409 18.2908 17.1803 18.439 16.9285 18.5352C16.6766 18.6314 16.4074 18.6733 16.1382 18.6584L15.1329 18.6028C14.8461 18.587 14.5593 18.6359 14.2939 18.7459C14.0285 18.8559 13.7912 19.0241 13.5996 19.2382L12.9288 19.9876C12.749 20.1885 12.5289 20.3492 12.2827 20.4593C12.0366 20.5693 11.77 20.6262 11.5004 20.6262C11.2308 20.6262 10.9642 20.5693 10.718 20.4593C10.4719 20.3492 10.2518 20.1885 10.072 19.9876L9.40116 19.2382C9.20943 19.024 8.97198 18.8557 8.70639 18.7457C8.44081 18.6357 8.15388 18.5868 7.86686 18.6028L6.86061 18.6584C6.59147 18.6732 6.32222 18.6311 6.07046 18.5348C5.81869 18.4385 5.59006 18.2902 5.39951 18.0996C5.20895 17.9089 5.06075 17.6802 4.96458 17.4284C4.86841 17.1766 4.82644 16.9073 4.84141 16.6382L4.89699 15.6329C4.91277 15.346 4.86386 15.0593 4.75388 14.7939C4.6439 14.5285 4.47567 14.2912 4.26161 14.0996L3.5122 13.4287C3.31126 13.249 3.15052 13.0288 3.04047 12.7827C2.93042 12.5365 2.87354 12.27 2.87354 12.0003C2.87354 11.7307 2.93042 11.4641 3.04047 11.218C3.15052 10.9719 3.31126 10.7517 3.5122 10.5719L4.26161 9.90111C4.4758 9.70938 4.64411 9.47194 4.7541 9.20635C4.86408 8.94076 4.91292 8.65383 4.89699 8.36682L4.84141 7.36057C4.82671 7.0915 4.86891 6.82236 4.96526 6.57071C5.06161 6.31906 5.20994 6.09055 5.40057 5.9001C5.59121 5.70965 5.81985 5.56153 6.0716 5.46542C6.32334 5.36931 6.59252 5.32736 6.86157 5.34232L7.86686 5.3979C8.15372 5.41368 8.44046 5.36478 8.70587 5.2548C8.97128 5.14482 9.20857 4.97658 9.4002 4.76253L10.071 4.01311L10.072 4.01215Z" stroke="#9796A1" stroke-width="2"/>
<path d="M9.104 9.604H9.11359V9.61359H9.104V9.604ZM13.8957 14.3957H13.9053V14.4053H13.8957V14.3957Z" stroke="#9796A1" stroke-width="3" stroke-linejoin="round"/>
<path d="M14.375 9.125L8.625 14.875" stroke="#9796A1" stroke-width="2" stroke-linecap="round" stroke-linejoin="round"/>
</svg>
