<svg width="23" height="24" viewBox="0 0 23 24" fill="none" xmlns="http://www.w3.org/2000/svg">
<path opacity="0.4" d="M19.6252 13.6439C18.7183 13.1189 18.4044 11.9866 18.9168 11.0883C19.085 10.7983 19.3296 10.5572 19.6252 10.3898C20.0747 10.1384 20.4029 9.72317 20.5374 9.2357C20.672 8.74824 20.6018 8.22866 20.3424 7.79167L19.704 6.67575C19.4459 6.23802 19.0195 5.91834 18.519 5.78728C18.0185 5.65623 17.4851 5.72457 17.0364 5.97723C16.5864 6.23029 16.0516 6.29886 15.5497 6.16786C15.0478 6.03686 14.6199 5.71702 14.3601 5.27871C14.1901 4.98788 14.0997 4.65932 14.0977 4.32464C14.1001 3.81936 13.8956 3.33399 13.5296 2.9759C13.1636 2.61781 12.6662 2.4165 12.1474 2.4165H10.8617C9.78312 2.41649 8.9074 3.26562 8.90259 4.31613C8.90625 4.99745 8.535 5.6285 7.92965 5.96994C7.32429 6.31138 6.57756 6.31091 5.97266 5.96871C5.51986 5.70577 4.97705 5.63256 4.46793 5.76576C3.9588 5.89895 3.52672 6.22722 3.27013 6.67575L2.65791 7.74907C2.1228 8.65986 2.4432 9.82057 3.37508 10.3472C4.30903 10.877 4.62603 12.0434 4.08351 12.9539C3.91758 13.2434 3.67231 13.4823 3.37508 13.6439C2.92566 13.8952 2.59744 14.3105 2.46288 14.798C2.32833 15.2854 2.3985 15.805 2.65791 16.242L3.27013 17.3324C3.81409 18.242 5.01164 18.5508 5.94642 18.0224C6.88219 17.5061 8.07014 17.8172 8.61397 18.7209C8.78705 19.0105 8.87763 19.3399 8.87635 19.675C8.87633 20.184 9.08513 20.6719 9.45633 21.0303C9.82753 21.3886 10.3303 21.5876 10.853 21.5831H12.1386C13.2206 21.5831 14.0977 20.7288 14.0977 19.675C14.0907 19.1667 14.2931 18.677 14.6596 18.3152C15.0262 17.9534 15.5263 17.7497 16.0481 17.7498C16.3923 17.7477 16.7306 17.836 17.0277 18.0053C17.9628 18.5265 19.1545 18.2145 19.6952 17.3068L20.3424 16.2164C20.8649 15.3121 20.5456 14.1666 19.6252 13.6439Z" fill="#9796A1"/>
<path d="M11.4998 14.3957C12.823 14.3957 13.8957 13.323 13.8957 11.9998C13.8957 10.6767 12.823 9.604 11.4998 9.604C10.1767 9.604 9.104 10.6767 9.104 11.9998C9.104 13.323 10.1767 14.3957 11.4998 14.3957Z" fill="#9796A1"/>
</svg>
