<svg width="23" height="24" viewBox="0 0 23 24" fill="none" xmlns="http://www.w3.org/2000/svg">
<path fill-rule="evenodd" clip-rule="evenodd" d="M8.17598 3.31424C10.2698 2.09764 12.8434 2.11891 14.9176 3.36994C16.9714 4.64646 18.2196 6.92467 18.208 9.37539C18.1602 11.81 16.8217 14.0986 15.1487 15.8678C14.183 16.8935 13.1028 17.8005 11.93 18.5702C11.8092 18.64 11.6769 18.6868 11.5396 18.7082C11.4075 18.7025 11.2788 18.6635 11.1651 18.5946C9.37466 17.438 7.80387 15.9616 6.52832 14.2366C5.46098 12.7966 4.8546 11.0568 4.79151 9.25366C4.79012 6.79824 6.08215 4.53084 8.17598 3.31424ZM9.38594 10.2697C9.73815 11.1381 10.5695 11.7044 11.4918 11.7044C12.0961 11.7088 12.6769 11.4668 13.1049 11.0323C13.5329 10.5978 13.7725 10.007 13.7704 9.39153C13.7736 8.45203 13.2205 7.60322 12.3693 7.24141C11.5181 6.8796 10.5368 7.07617 9.88347 7.73933C9.23015 8.4025 9.03374 9.40144 9.38594 10.2697Z" fill="#9796A1"/>
</svg>
