<svg width="33" height="34" viewBox="0 0 33 34" fill="none" xmlns="http://www.w3.org/2000/svg">
<g filter="url(#filter0_d_507_5850)">
<path d="M16.5856 24.2446C22.0705 24.2446 26.517 19.7127 26.517 14.1223C26.517 8.53192 22.0705 4 16.5856 4C11.1007 4 6.6543 8.53192 6.6543 14.1223C6.6543 19.7127 11.1007 24.2446 16.5856 24.2446Z" fill="white"/>
<path d="M16.586 24.0536C21.9655 24.0536 26.3264 19.6072 26.3264 14.1222C26.3264 8.63733 21.9655 4.19092 16.586 4.19092C11.2066 4.19092 6.8457 8.63733 6.8457 14.1222C6.8457 19.6072 11.2066 24.0536 16.586 24.0536Z" stroke="black" stroke-opacity="0.1"/>
</g>
<path opacity="0.2" d="M13.2622 14.3896H20.5995" stroke="#3E4462" stroke-width="2"/>
<defs>
<filter id="filter0_d_507_5850" x="0.345703" y="0.690918" width="32.4805" height="32.8628" filterUnits="userSpaceOnUse" color-interpolation-filters="sRGB">
<feFlood flood-opacity="0" result="BackgroundImageFix"/>
<feColorMatrix in="SourceAlpha" type="matrix" values="0 0 0 0 0 0 0 0 0 0 0 0 0 0 0 0 0 0 127 0" result="hardAlpha"/>
<feOffset dy="3"/>
<feGaussianBlur stdDeviation="3"/>
<feColorMatrix type="matrix" values="0 0 0 0 0 0 0 0 0 0 0 0 0 0 0 0 0 0 0.122 0"/>
<feBlend mode="normal" in2="BackgroundImageFix" result="effect1_dropShadow_507_5850"/>
<feBlend mode="normal" in="SourceGraphic" in2="effect1_dropShadow_507_5850" result="shape"/>
</filter>
</defs>
</svg>
