<svg width="24" height="24" viewBox="0 0 24 24" fill="none" xmlns="http://www.w3.org/2000/svg">
<path fill-rule="evenodd" clip-rule="evenodd" d="M16.0999 13.359L16.5559 12.906C17.1859 12.28 18.1669 12.151 18.9729 12.589L20.8829 13.628C22.1099 14.295 22.3809 15.93 21.4219 16.883L20.0019 18.295C19.6399 18.655 19.1919 18.917 18.6759 18.965C17.4839 19.076 15.0309 19.016 12.1369 17.322L16.0999 13.359ZM10.1899 7.48298L10.4769 7.19698C11.1839 6.49498 11.2509 5.36698 10.6339 4.54298L9.37388 2.85998C8.60988 1.83998 7.13488 1.70498 6.25988 2.57498L4.68988 4.13498C4.25688 4.56698 3.96688 5.12498 4.00188 5.74498C4.06688 6.88498 4.45488 8.96498 6.15088 11.521L10.1899 7.48298Z" fill="#DF4426"/>
<path opacity="0.6" d="M12.0629 11.4974C9.11688 8.56842 10.1829 7.48942 10.1899 7.48242L6.15088 11.5224C6.81788 12.5264 7.68588 13.6034 8.81488 14.7264C9.95488 15.8604 11.0749 16.7014 12.1369 17.3224L16.0999 13.3604C16.0999 13.3604 15.0179 14.4364 12.0629 11.4984V11.4974Z" fill="#DF4426"/>
</svg>
