<svg width="32" height="32" viewBox="0 0 32 32" fill="none" xmlns="http://www.w3.org/2000/svg">
<rect width="32" height="32" rx="16" fill="#E84C4F"/>
<path d="M24.1531 11.21C23.3331 9.38996 21.6131 8.20996 19.7531 8.20996C17.8931 8.20996 16.6931 9.02996 15.9931 9.90996C15.2931 9.02996 14.0931 8.20996 12.2331 8.20996C10.3731 8.20996 8.65308 9.38996 7.83308 11.21C6.99308 13.11 7.35308 15.21 8.81308 16.85C12.3131 20.79 15.4131 23.57 15.4531 23.59C15.6131 23.73 15.7931 23.79 15.9931 23.79C16.1931 23.79 16.3731 23.73 16.5331 23.59C16.5731 23.57 19.6531 20.77 23.1731 16.85C24.6531 15.21 25.0131 13.11 24.1531 11.21ZM21.9931 15.79C19.3931 18.69 17.0331 20.97 16.0131 21.91C14.9931 20.95 12.6331 18.69 10.0331 15.77C8.99308 14.59 8.73308 13.17 9.31308 11.83C9.85308 10.61 11.0331 9.76997 12.2531 9.76997C14.6331 9.76997 15.1731 11.55 15.2331 11.77C15.3131 12.13 15.6331 12.37 15.9931 12.37C16.3531 12.37 16.6731 12.11 16.7731 11.77C16.8331 11.57 17.3731 9.76997 19.7531 9.76997C20.9531 9.76997 22.1331 10.59 22.6931 11.83C23.2931 13.19 23.0331 14.61 21.9931 15.79ZM21.7931 13.47C21.8131 13.85 21.5331 14.19 21.1331 14.21C21.1131 14.21 21.0931 14.21 21.0931 14.21C20.7331 14.21 20.4131 13.93 20.3931 13.55C20.3131 12.41 19.5731 12.23 19.4331 12.21C19.0531 12.15 18.7931 11.81 18.8331 11.43C18.8931 11.05 19.2531 10.79 19.6331 10.83C20.3331 10.93 21.6731 11.61 21.7931 13.47ZM20.8331 14.63C20.9931 14.79 21.0731 14.99 21.0731 15.19C21.0731 15.41 20.9931 15.61 20.8331 15.75C20.6931 15.91 20.4731 15.99 20.2731 15.99C20.0731 15.99 19.8531 15.91 19.7131 15.75C19.5531 15.61 19.4731 15.39 19.4731 15.19C19.4731 14.99 19.5531 14.77 19.7131 14.63C19.8531 14.49 20.0731 14.39 20.2731 14.39C20.4731 14.41 20.6731 14.49 20.8331 14.63Z" fill="white"/>
</svg>
