<svg width="44" height="44" viewBox="0 0 44 44" fill="none" xmlns="http://www.w3.org/2000/svg">
<rect width="44" height="44" rx="10" fill="#DF4426"/>
<g clip-path="url(#clip0_55_11624)">
<path fill-rule="evenodd" clip-rule="evenodd" d="M19 23C19.5304 23 20.0391 23.2107 20.4142 23.5858C20.7893 23.9609 21 24.4696 21 25V29C21 29.5304 20.7893 30.0391 20.4142 30.4142C20.0391 30.7893 19.5304 31 19 31H15C14.4696 31 13.9609 30.7893 13.5858 30.4142C13.2107 30.0391 13 29.5304 13 29V25C13 24.4696 13.2107 23.9609 13.5858 23.5858C13.9609 23.2107 14.4696 23 15 23H19ZM29 23C29.5046 22.9998 29.9906 23.1904 30.3605 23.5335C30.7305 23.8766 30.9572 24.3468 30.995 24.85L31 25V29C31.0002 29.5046 30.8096 29.9906 30.4665 30.3605C30.1234 30.7305 29.6532 30.9572 29.15 30.995L29 31H25C24.4954 31.0002 24.0094 30.8096 23.6395 30.4665C23.2695 30.1234 23.0428 29.6532 23.005 29.15L23 29V25C22.9998 24.4954 23.1904 24.0094 23.5335 23.6395C23.8766 23.2695 24.3468 23.0428 24.85 23.005L25 23H29ZM19 25H15V29H19V25ZM29 25H25V29H29V25ZM29 13C29.5046 12.9998 29.9906 13.1904 30.3605 13.5335C30.7305 13.8766 30.9572 14.3468 30.995 14.85L31 15V19C31.0002 19.5046 30.8096 19.9906 30.4665 20.3605C30.1234 20.7305 29.6532 20.9572 29.15 20.995L29 21H25C24.4954 21.0002 24.0094 20.8096 23.6395 20.4665C23.2695 20.1234 23.0428 19.6532 23.005 19.15L23 19V15C22.9998 14.4954 23.1904 14.0094 23.5335 13.6395C23.8766 13.2695 24.3468 13.0428 24.85 13.005L25 13H29ZM19 13C19.5046 12.9998 19.9906 13.1904 20.3605 13.5335C20.7305 13.8766 20.9572 14.3468 20.995 14.85L21 15V19C21.0002 19.5046 20.8096 19.9906 20.4665 20.3605C20.1234 20.7305 19.6532 20.9572 19.15 20.995L19 21H15C14.4954 21.0002 14.0094 20.8096 13.6395 20.4665C13.2695 20.1234 13.0428 19.6532 13.005 19.15L13 19V15C12.9998 14.4954 13.1904 14.0094 13.5335 13.6395C13.8766 13.2695 14.3468 13.0428 14.85 13.005L15 13H19ZM29 15H25V19H29V15ZM19 15H15V19H19V15Z" fill="white"/>
</g>
<defs>
<clipPath id="clip0_55_11624">
<rect width="24" height="24" fill="white" transform="translate(10 10)"/>
</clipPath>
</defs>
</svg>
