<svg width="81" height="81" viewBox="0 0 81 81" fill="none" xmlns="http://www.w3.org/2000/svg">
<circle cx="39.9924" cy="41" r="30" fill="#DF4426"/>
<path d="M34.7425 54.875L49.1175 40.5L34.7425 26.125" stroke="white" stroke-width="4" stroke-linecap="round" stroke-linejoin="round"/>
<mask id="path-3-inside-1_30_588" fill="white">
<path d="M77.998 33.8789C79.5428 33.7168 80.6744 32.33 80.3969 30.8017C79.157 23.971 76.0406 17.5986 71.3714 12.4115C66.7022 7.22434 60.6914 3.45726 54.0283 1.50824C52.5375 1.07216 51.0398 2.05219 50.7166 3.5715C50.3935 5.09081 51.3683 6.57235 52.8532 7.02813C58.3557 8.71704 63.3165 11.8708 67.1907 16.1747C71.0649 20.4787 73.6814 25.7427 74.7843 31.3918C75.0819 32.9164 76.4532 34.0411 77.998 33.8789Z"/>
</mask>
<path d="M77.998 33.8789C79.5428 33.7168 80.6744 32.33 80.3969 30.8017C79.157 23.971 76.0406 17.5986 71.3714 12.4115C66.7022 7.22434 60.6914 3.45726 54.0283 1.50824C52.5375 1.07216 51.0398 2.05219 50.7166 3.5715C50.3935 5.09081 51.3683 6.57235 52.8532 7.02813C58.3557 8.71704 63.3165 11.8708 67.1907 16.1747C71.0649 20.4787 73.6814 25.7427 74.7843 31.3918C75.0819 32.9164 76.4532 34.0411 77.998 33.8789Z" stroke="#DF4426" stroke-width="10" mask="url(#path-3-inside-1_30_588)"/>
<mask id="path-4-inside-2_30_588" fill="white">
<path d="M3.00271 47.1276C1.45792 47.2901 0.326608 48.6771 0.604348 50.2053C1.84568 57.0358 4.96334 63.4076 9.63357 68.5938C14.3038 73.78 20.3153 77.5458 26.9788 79.4935C28.4697 79.9293 29.9673 78.949 30.2901 77.4296C30.613 75.9102 29.6378 74.4289 28.1528 73.9734C22.65 72.2856 17.6886 69.1328 13.8135 64.8297C9.93848 60.5265 7.32093 55.263 6.21687 49.6141C5.91893 48.0896 4.54749 46.9652 3.00271 47.1276Z"/>
</mask>
<path d="M3.00271 47.1276C1.45792 47.2901 0.326608 48.6771 0.604348 50.2053C1.84568 57.0358 4.96334 63.4076 9.63357 68.5938C14.3038 73.78 20.3153 77.5458 26.9788 79.4935C28.4697 79.9293 29.9673 78.949 30.2901 77.4296C30.613 75.9102 29.6378 74.4289 28.1528 73.9734C22.65 72.2856 17.6886 69.1328 13.8135 64.8297C9.93848 60.5265 7.32093 55.263 6.21687 49.6141C5.91893 48.0896 4.54749 46.9652 3.00271 47.1276Z" stroke="#333936" stroke-opacity="0.2" stroke-width="10" mask="url(#path-4-inside-2_30_588)"/>
<mask id="path-5-inside-3_30_588" fill="white">
<path d="M77.9987 47.1145C79.5436 47.2764 80.6754 48.6629 80.3983 50.1913C79.1597 57.0222 76.0446 63.3953 71.3764 68.5833C66.7083 73.7714 60.6983 77.5396 54.0355 79.49C52.5448 79.9264 51.0469 78.9466 50.7234 77.4274C50.4 75.9081 51.3745 74.4264 52.8593 73.9703C58.3615 72.2803 63.3216 69.1256 67.195 64.8209C71.0683 60.5162 73.6837 55.2517 74.7856 49.6022C75.0829 48.0777 76.4539 46.9527 77.9987 47.1145Z"/>
</mask>
<path d="M77.9987 47.1145C79.5436 47.2764 80.6754 48.6629 80.3983 50.1913C79.1597 57.0222 76.0446 63.3953 71.3764 68.5833C66.7083 73.7714 60.6983 77.5396 54.0355 79.49C52.5448 79.9264 51.0469 78.9466 50.7234 77.4274C50.4 75.9081 51.3745 74.4264 52.8593 73.9703C58.3615 72.2803 63.3216 69.1256 67.195 64.8209C71.0683 60.5162 73.6837 55.2517 74.7856 49.6022C75.0829 48.0777 76.4539 46.9527 77.9987 47.1145Z" stroke="#DF4426" stroke-width="10" mask="url(#path-5-inside-3_30_588)"/>
<mask id="path-6-inside-4_30_588" fill="white">
<path d="M3.00202 33.8789C1.45721 33.7168 0.325615 32.33 0.60305 30.8017C1.84302 23.971 4.9594 17.5986 9.6286 12.4115C14.2978 7.22434 20.3086 3.45726 26.9717 1.50824C28.4625 1.07216 29.9602 2.05219 30.2834 3.5715C30.6065 5.09081 29.6317 6.57235 28.1468 7.02813C22.6443 8.71704 17.6835 11.8708 13.8093 16.1747C9.93512 20.4787 7.31863 25.7427 6.21569 31.3918C5.91805 32.9164 4.54684 34.0411 3.00202 33.8789Z"/>
</mask>
<path d="M3.00202 33.8789C1.45721 33.7168 0.325615 32.33 0.60305 30.8017C1.84302 23.971 4.9594 17.5986 9.6286 12.4115C14.2978 7.22434 20.3086 3.45726 26.9717 1.50824C28.4625 1.07216 29.9602 2.05219 30.2834 3.5715C30.6065 5.09081 29.6317 6.57235 28.1468 7.02813C22.6443 8.71704 17.6835 11.8708 13.8093 16.1747C9.93512 20.4787 7.31863 25.7427 6.21569 31.3918C5.91805 32.9164 4.54684 34.0411 3.00202 33.8789Z" stroke="#333936" stroke-opacity="0.2" stroke-width="10" mask="url(#path-6-inside-4_30_588)"/>
</svg>
