<svg width="13" height="15" viewBox="0 0 13 15" fill="none" xmlns="http://www.w3.org/2000/svg">
<path d="M5.62328 15.0001C5.24264 15.0002 4.86295 14.9612 4.48998 14.8836C3.77077 14.7334 3.0876 14.4403 2.47947 14.0211C1.57536 13.3988 0.867666 12.5226 0.442132 11.4986C0.298273 11.1518 0.188445 10.7914 0.114255 10.4226C-0.0380849 9.66012 -0.0380849 8.87419 0.114255 8.11175C0.261573 7.37851 0.549067 6.68201 0.960333 6.06201C1.57068 5.14027 2.43013 4.41877 3.43455 3.98494C3.77468 3.83827 4.12821 3.7263 4.48998 3.65066C5.23783 3.49535 6.00872 3.49535 6.75657 3.65066C7.47579 3.80086 8.15895 4.09396 8.76709 4.51325C9.6712 5.1355 10.3789 6.01172 10.8044 7.03573C10.9483 7.38249 11.0581 7.74292 11.1323 8.11175C11.2821 8.86204 11.2845 9.63517 11.1392 10.3864C11.0147 11.0325 10.7805 11.6516 10.4471 12.2156C9.94794 13.0655 9.24107 13.7687 8.39558 14.2568C7.55009 14.7448 6.59488 15.0009 5.62328 15.0001ZM7.56026 6.5815C7.46914 6.58143 7.37891 6.5997 7.29473 6.63527C7.21055 6.67084 7.1341 6.723 7.06974 6.78877L5.10421 8.79C4.974 8.92298 4.90095 9.10325 4.90111 9.29115C4.90127 9.47905 4.97464 9.65919 5.10508 9.79193C5.23552 9.92468 5.41234 9.99917 5.59664 9.999C5.78094 9.99884 5.95763 9.92403 6.08784 9.79105L7.06974 8.79L8.05164 7.78982C8.1498 7.69128 8.21687 7.56512 8.24429 7.42749C8.2717 7.28986 8.25821 7.14702 8.20553 7.01725C8.15285 6.88748 8.06338 6.7767 7.94859 6.69907C7.83379 6.62144 7.69888 6.58051 7.56113 6.5815H7.56026Z" fill="url(#paint0_linear_101_7130)"/>
<path d="M2.87061 0.749823C2.87061 0.550994 2.94808 0.360307 3.08598 0.219714C3.22389 0.0791197 3.41092 0.000134826 3.60595 0.000134826L8.01801 0.000134826C8.21304 0.000134826 8.40008 0.0791197 8.53798 0.219714C8.67588 0.360307 8.75336 0.550994 8.75336 0.749823C8.75336 0.948653 8.67588 1.13934 8.53798 1.27993C8.40008 1.42053 8.21304 1.49951 8.01801 1.49951L3.60595 1.49951C3.41092 1.49951 3.22389 1.42053 3.08598 1.27993C2.94808 1.13934 2.87061 0.948653 2.87061 0.749823V0.749823Z" fill="url(#paint1_linear_101_7130)"/>
<path d="M10.4184 2.14969C10.5609 2.00447 10.7541 1.92288 10.9555 1.92288C11.157 1.92288 11.3502 2.00447 11.4926 2.14969L12.4628 3.13882C12.6053 3.28404 12.6853 3.48101 12.6853 3.68639C12.6853 3.89177 12.6053 4.08874 12.4628 4.23396C12.3204 4.37919 12.1272 4.46077 11.9257 4.46077C11.7243 4.46077 11.5311 4.37919 11.3886 4.23396L10.4184 3.24484C10.276 3.09961 10.196 2.90265 10.196 2.69727C10.196 2.49189 10.276 2.29492 10.4184 2.14969Z" fill="url(#paint2_linear_101_7130)"/>
<defs>
<linearGradient id="paint0_linear_101_7130" x1="5.62321" y1="3.53418" x2="5.62321" y2="15.0001" gradientUnits="userSpaceOnUse">
<stop stop-color="#DF4426"/>
<stop offset="1" stop-color="#991A01"/>
</linearGradient>
<linearGradient id="paint1_linear_101_7130" x1="2.87061" y1="0.749823" x2="8.75336" y2="0.749823" gradientUnits="userSpaceOnUse">
<stop stop-color="#DF4426"/>
<stop offset="1" stop-color="#991A01"/>
</linearGradient>
<linearGradient id="paint2_linear_101_7130" x1="10.4184" y1="2.14969" x2="12.5023" y2="4.1937" gradientUnits="userSpaceOnUse">
<stop stop-color="#DF4426"/>
<stop offset="1" stop-color="#991A01"/>
</linearGradient>
</defs>
</svg>
