<svg width="108" height="64" viewBox="0 0 108 64" fill="none" xmlns="http://www.w3.org/2000/svg">
<path d="M84.3893 40.9956C84.1657 40.9911 84.2893 41.4328 84.6139 41.1822" stroke="#7B4234" stroke-width="2"/>
<path d="M84.3895 40.9958C84.2364 40.9958 84.1789 41.314 84.546 41.2459C86.4839 40.8503 88.3702 40.4956 90.324 40.0079C102.29 37.4903 103.355 36.9856 104.204 37.3373C106.79 39.7883 99.6435 40.0384 98.4295 40.5466C92.0107 42.0348 85.8546 43.1503 79.5484 44.7609C77.6416 45.5778 79.5824 43.5604 79.7855 42.8846C87.2927 29.718 94.8645 16.9415 102.17 3.80338C102.277 3.1421 99.0598 3.65332 98.365 3.57028C98.1507 3.54586 97.9353 3.53367 97.7197 3.53377C53.9784 3.3892 56.497 4.33011 53.9304 1.57192C52.6799 -0.128805 53.7348 0.44344 53.9214 0.341396H107.641C107.729 0.341396 107.629 0.213341 108 0.525975C107.639 1.44637 106.945 2.30174 106.484 3.19312C99.1733 15.813 91.557 28.1998 84.3895 40.9958Z" fill="#144051"/>
<path d="M91.3845 6.9763C93.3068 10.1872 92.0068 4.89241 92.9322 4.91692C92.7821 4.91291 99.0448 4.95593 99.7156 4.91091C96.6738 11.6958 91.0929 19.8988 87.1262 27.1024C75.7828 46.5923 76.5802 45.6369 75.3121 45.9425C74.4618 45.988 73.5489 46.6733 72.8471 46.4427C73.6929 44.8805 74.6478 43.2288 75.5557 41.6662C79.9441 34.0629 83.9003 26.9819 88.1451 19.5457C97.8368 4.90091 82.8529 8.59099 80.2392 8.10478C62.9358 7.69361 60.3262 9.18725 59.0867 5.17953C59.1022 4.68382 59.3083 4.98695 59.3048 4.91191H88.0261C88.1997 4.84539 90.272 4.8804 91.3845 6.9763Z" fill="#DE4727"/>
<path d="M86.1098 12.607C77.3941 12.4299 69.5262 12.9071 61.8494 12.3944C60.4153 12.1528 58.0213 11.1629 57.8357 9.57822C59.1608 9.46767 60.6729 9.58972 62.0765 9.5482C87.8831 9.98589 94.3979 6.65896 87.0047 18.3815C82.0561 27.0597 77.5071 34.9756 72.6676 43.3802C70.3606 47.518 70.8018 47.1578 67.883 47.9377C65.9387 48.691 67.2227 47.6 67.5439 46.7652C88.3788 9.40164 86.7526 13.0037 86.1098 12.607Z" fill="#144051"/>
<path d="M84.3895 40.9956C84.3695 41.1347 84.4441 41.1957 84.6141 41.1822C84.6111 41.3493 83.9779 41.1527 84.3895 40.9956Z" fill="#DE4727"/>
<path d="M102.355 42.5378C110.654 41.2538 107.702 48.1697 105.302 45.9238C104.952 45.6202 105.047 44.5732 105.639 45.18C106.122 45.8743 107.103 45.5401 107.118 44.5797C107.129 41.2813 98.1448 44.7643 95.6742 45.215C89.278 46.9072 85.4018 47.9537 82.0184 48.9166C68.9378 52.6522 68.8597 51.4381 64.0237 59.5401C63.508 60.2519 63.4234 60.531 64.4148 60.6956C71.818 61.8296 72.1011 53.4965 77.4834 52.4921C84.9406 50.4912 95.2411 48.4063 94.6663 48.9666C92.2383 49.7139 89.9293 50.4172 87.4597 51.19C71.774 54.9226 77.635 60.5255 68.4516 63.3908C54.8797 64.0796 58.6023 63.5809 59.2191 61.6445C62.2389 56.4633 64.1387 52.222 65.1216 51.8603C82.0739 46.7261 100.349 42.6634 102.355 42.5378Z" fill="#144051"/>
<path d="M75.0323 52.7352C72.054 54.2603 70.6389 57.4272 68.2654 58.8673C67.8152 59.2565 64.4733 60.0278 65.3641 59.1559C66.7232 57.2096 67.5751 55.3443 69.5224 54.2183C71.4493 52.9443 77.2758 51.8138 75.0323 52.7352Z" fill="#DE4727"/>
<path d="M8.18276 26.564V27.3893L3.5963 38.6727L0.840614 38.6802L5.96281 27.3893H2.84397C2.11032 27.3893 1.54458 27.5637 1.14675 27.9125C0.748908 28.2614 0.550156 28.7597 0.550489 29.4077H0.00025341V28.0316C-0.000486602 27.7903 0.0430875 27.5509 0.128809 27.3253C0.218378 27.0945 0.383155 26.9006 0.596509 26.7751C0.822606 26.6347 1.14374 26.5643 1.55992 26.564H8.18276Z" fill="#DE4727"/>
<path d="M13.8452 37.6447C13.5271 37.3269 13.2581 36.8989 13.0383 36.3607L8.92908 26.564H8.10373L2.69141 38.6727H3.64532L5.14946 35.3322H10.0296L10.4517 36.3592C10.7455 37.0565 11.0972 37.5764 11.5067 37.9188C11.9162 38.2613 12.3442 38.4846 12.7907 38.5886C13.2084 38.6888 13.6362 38.741 14.0658 38.7442C14.2221 38.743 14.3782 38.7338 14.5335 38.7167C14.6723 38.7047 14.8102 38.6833 14.9462 38.6526V38.194C14.5266 38.1439 14.1375 37.9498 13.8452 37.6447ZM5.53463 34.5079L7.66304 29.7193L9.6809 34.5079H5.53463Z" fill="#144051"/>
<path d="M22.3122 32.0228C22.1653 31.5704 21.9137 31.1591 21.5779 30.8223C21.2426 30.4975 20.8382 30.2528 20.3949 30.1065C19.93 29.9481 19.398 29.8687 18.7987 29.8684C18.2423 29.8646 17.6867 29.9106 17.1385 30.0059C16.631 30.0973 16.2671 30.2654 16.047 30.5102C15.8294 30.7498 15.6915 31.0511 15.6524 31.3725C15.6099 31.6951 15.5883 32.0201 15.5879 32.3454H16.5973C16.744 31.6602 16.9825 31.2136 17.3126 31.0059C17.648 30.7964 18.0367 30.688 18.4321 30.6937C18.7989 30.6937 19.1137 30.7854 19.3765 30.9689C19.6393 31.1523 19.838 31.4581 19.9727 31.8862C20.1061 32.3148 20.1728 32.8958 20.1728 33.6295H19.8977C18.5885 33.6295 17.5732 33.7364 16.8519 33.9501C16.1306 34.1639 15.6322 34.4747 15.3568 34.8825C15.0816 35.2924 14.9441 35.7908 14.9441 36.3777C14.9394 36.7243 15.0075 37.068 15.1442 37.3866C15.2771 37.6908 15.4817 37.9584 15.7404 38.1664C16.0299 38.3947 16.36 38.566 16.7133 38.6712C17.0985 38.7932 17.5479 38.8542 18.0614 38.8542C18.6117 38.8542 19.0765 38.7504 19.456 38.5426C19.8355 38.3348 20.1045 38.1026 20.2629 37.8458H20.3589L21.0012 38.6712H22.5598V33.719C22.5598 33.0711 22.4773 32.5057 22.3122 32.0228ZM20.1748 36.7468C20.0748 37.0033 19.8914 37.2662 19.6246 37.5357C19.3578 37.8051 19.0215 37.9397 18.6157 37.9393C18.2488 37.9393 17.9584 37.8078 17.7443 37.5447C17.5302 37.2816 17.4231 36.8932 17.4231 36.3797C17.4231 35.7314 17.6159 35.2479 18.0014 34.9291C18.3869 34.6103 19.0205 34.4512 19.9022 34.4519H20.1773L20.1748 36.7468Z" fill="#144051"/>
<path d="M32.3016 27.5179C32.2036 27.1757 32.0353 26.9311 31.7969 26.7841C31.5584 26.637 31.225 26.5636 30.7964 26.564H28.5955V27.1142H28.7791C29.3293 27.1142 29.681 27.2824 29.834 27.6189C29.9871 27.9554 30.0635 28.3988 30.0631 28.949V30.4166C29.8042 30.2644 29.5307 30.1384 29.2468 30.0405C28.8895 29.9193 28.514 29.8604 28.1368 29.8664C27.2564 29.8664 26.5228 30.0651 25.9359 30.4626C25.349 30.8597 24.8926 31.4213 24.6238 32.0768C24.3363 32.7561 24.1928 33.5176 24.1931 34.3613C24.1931 35.1933 24.3367 35.9517 24.6238 36.6363C24.9109 37.3209 25.3391 37.8621 25.9084 38.26C26.4769 38.6572 27.1894 38.8557 28.0458 38.8557C28.5713 38.8557 29.0147 38.7487 29.3758 38.5346C29.737 38.3205 29.9968 38.0914 30.1552 37.8473H30.2472L30.889 38.6727H32.4487V28.949C32.4483 28.3377 32.3993 27.8607 32.3016 27.5179ZM30.0631 36.8379C29.9695 37.0163 29.8589 37.1853 29.733 37.3426C29.5809 37.5369 29.3944 37.7015 29.1828 37.8283C28.9496 37.9659 28.6825 38.0353 28.4119 38.0284C27.9837 38.0284 27.6413 37.8693 27.3845 37.5512C27.1277 37.233 26.9443 36.7959 26.8342 36.2396C26.7185 35.6197 26.6632 34.9899 26.6692 34.3593C26.662 33.7251 26.7204 33.0918 26.8433 32.4695C26.96 31.9193 27.1526 31.4857 27.421 31.1689C27.6894 30.8521 28.0503 30.6931 28.5035 30.6917C28.8123 30.6875 29.1188 30.7468 29.4039 30.8658C29.6389 30.9631 29.8607 31.0897 30.0641 31.2425L30.0631 36.8379Z" fill="#144051"/>
<path d="M41.1619 31.0598L40.227 31.7746C40.0914 31.5908 39.9272 31.4299 39.7408 31.2979C39.5142 31.1347 39.2401 31.0507 38.961 31.0588C38.5698 31.0588 38.2396 31.114 37.9705 31.2244C37.7318 31.3151 37.5135 31.4523 37.3283 31.6281C37.3528 31.8482 37.3708 32.0258 37.3833 32.1598C37.3958 32.2939 37.4018 32.4099 37.4018 32.51V38.6731H35.0153V32.4354C35.0153 31.8849 34.9419 31.4415 34.7952 31.1054C34.6484 30.7692 34.3003 30.601 33.7507 30.6006H33.5671V30.0504H35.3839C35.7994 30.0504 36.1264 30.1024 36.3648 30.2065C36.6056 30.3125 36.803 30.4974 36.9246 30.7307C37.1447 30.5349 37.4475 30.3424 37.833 30.153C38.2185 29.9635 38.6863 29.8687 39.2366 29.8683C39.4842 29.8656 39.731 29.8964 39.9704 29.9599C40.1759 30.0142 40.369 30.1076 40.5391 30.235C40.7368 30.3708 40.8976 30.5537 41.0068 30.7672C41.0526 30.8678 41.1044 30.9655 41.1619 31.0598Z" fill="#144051"/>
<path d="M49.8039 33.5353C49.8039 32.8016 49.6265 32.1597 49.2717 31.6095C48.9147 31.0566 48.413 30.6122 47.8211 30.3244C47.2092 30.0193 46.5244 29.8665 45.7667 29.8662C45.0091 29.8659 44.3244 30.0371 43.7128 30.3799C43.1009 30.7227 42.6174 31.2273 42.2622 31.8936C41.9071 32.5599 41.7296 33.3824 41.73 34.3611C41.73 35.2172 41.9012 35.9842 42.2437 36.6621C42.5714 37.3252 43.0802 37.8817 43.7113 38.2673C44.3473 38.6588 45.0934 38.8544 45.9498 38.8541C46.6221 38.8541 47.1815 38.7502 47.628 38.5424C48.039 38.3593 48.4122 38.1011 48.7285 37.7811C48.9848 37.5205 49.2153 37.2357 49.4168 36.9307L48.848 36.5086C48.5458 36.9205 48.184 37.2853 47.7746 37.591C47.3767 37.8845 46.8598 38.0312 46.2239 38.0312C45.6237 38.0312 45.1374 37.7774 44.7653 37.2699C44.3931 36.7623 44.2067 35.9031 44.206 34.6923H49.7304L49.8039 33.5353ZM44.2085 33.8659C44.2085 33.0579 44.2819 32.4243 44.4286 31.9651C44.5754 31.5059 44.768 31.1788 45.0064 30.9837C45.2445 30.7883 45.4983 30.6904 45.7677 30.6901C46.2322 30.6901 46.6082 30.9163 46.8957 31.3689C47.1832 31.8214 47.327 32.6532 47.3274 33.8644L44.2085 33.8659Z" fill="#144051"/>
<path d="M54.0421 28.0321C54.0421 28.3502 53.9443 28.6003 53.7485 28.7824C53.5555 28.9648 53.2982 29.0637 53.0327 29.0575C52.5682 29.0575 52.2229 28.9168 51.9968 28.6353C51.7728 28.3614 51.6525 28.0172 51.6571 27.6634C51.6571 27.3453 51.7548 27.0952 51.9502 26.9131C52.1432 26.7305 52.4005 26.6315 52.666 26.6375C53.1309 26.6375 53.4764 26.7784 53.7025 27.0601C53.9263 27.3342 54.0465 27.6783 54.0421 28.0321Z" fill="#DE4727"/>
<path d="M54.2235 32.4353V38.673H51.8385V32.4353C51.8385 31.8847 51.7619 31.4414 51.6089 31.1052C51.4558 30.7691 51.1041 30.6009 50.5539 30.6005H50.3718V30.0503H52.5728C53.0006 30.0503 53.3341 30.1237 53.5732 30.2704C53.8123 30.4171 53.9805 30.6617 54.0779 31.0042C54.175 31.3463 54.2235 31.8234 54.2235 32.4353Z" fill="#144051"/>
<path d="M64.828 33.2421V38.6729H62.4424V33.2236C62.4424 32.6233 62.3661 32.1465 62.2133 31.793C62.0606 31.4395 61.8559 31.1826 61.5991 31.0222C61.3274 30.8595 61.0153 30.7769 60.6987 30.7841C60.3912 30.7791 60.0848 30.8224 59.7908 30.9126C59.5564 30.9837 59.3362 31.0954 59.1405 31.2428V38.6729H56.7555V32.4353C56.7555 31.8847 56.6823 31.4413 56.5359 31.1052C56.3895 30.769 56.0409 30.6008 55.49 30.6005H55.3069V30.0502H57.1247C57.5402 30.0502 57.8675 30.1023 58.1066 30.2063C58.3467 30.3127 58.5435 30.4976 58.6648 30.7305C58.8849 30.5224 59.1999 30.3267 59.6097 30.1433C60.0196 29.9599 60.5975 29.8682 61.3435 29.8682C62.1145 29.8682 62.7566 29.9849 63.2698 30.2183C63.771 30.4389 64.182 30.824 64.4348 31.3098C64.6969 31.8037 64.828 32.4478 64.828 33.2421Z" fill="#144051"/>
</svg>
